<svg xmlns="http://www.w3.org/2000/svg" xmlns:xlink="http://www.w3.org/1999/xlink" xmlns:lucid="lucid" width="4691.19" height="2900.27"><g transform="translate(-1328.8134556583746 -6220)" lucid:page-tab-id="Qo50SO0O_dP8"><path d="M-500 0h7000v9500H-500z" fill="#fff"/><path d="M1669.3 8150c38.67 0 70.02 31.35 70.02 70.03s-31.35 70.03-70.03 70.03h-270.46c-38.67 0-70.03-31.35-70.03-70.03s31.37-70.03 70.04-70.03z" stroke="#000" stroke-opacity="0" fill="#00c2a8"/><use xlink:href="#a" transform="matrix(1,0,0,1,1333.8134556583746,8154.999999936661) translate(151.8227777777778 78.72819444444443)"/><path d="M3167.2 8117.82a11.72 11.72 0 0 1 10.7 0l194.56 99.58a3.07 3.07 0 0 1 0 5.47l-194.57 99.58a11.72 11.72 0 0 1-10.7 0l-194.56-99.58a3.07 3.07 0 0 1 0-5.47z" stroke="#1071e5" stroke-width="3" fill="#fff"/><use xlink:href="#b" transform="matrix(1,0,0,1,2972.295792401075,8120.086950674407) translate(141.23166666666668 85.85319444444443)"/><use xlink:href="#c" transform="matrix(1,0,0,1,2972.295792401075,8120.086950674407) translate(128.79722222222227 139.9820833333333)"/><path d="M2342.2 8220.03h49.78a.05.05 0 0 1 .05.05.05.05 0 0 0 .05.05h33.9" stroke="#3a414a" fill="none"/><path d="M2342.2 8220.53h-.5v-1h.5z" stroke="#3a414a" stroke-width=".05" fill="#3a414a"/><path d="M2440.76 8220.13l-14.27 4.64v-9.27z" stroke="#3a414a" fill="#3a414a"/><path d="M2853.38 8220.13h99.7" stroke="#3a414a" fill="none"/><path d="M2853.4 8220.63h-.52v-1h.5z" stroke="#3a414a" stroke-width=".05" fill="#3a414a"/><path d="M2967.84 8220.13l-14.27 4.64v-9.27z" stroke="#3a414a" fill="#3a414a"/><path d="M3943 8562.77l-.42.9-263.4-123.5h2.36zm-364.75-171.03h-2.36l-275.86-129.34.43-.9z" stroke="#3a414a" stroke-width=".05" fill="#3a414a"/><path d="M3300.48 8261.5l-.43.9-.8-.37 1.12-.58z" fill="#3a414a"/><path d="M3300.5 8261.5l-.43.94-.9-.4 1.2-.62zm-1.2.52l.74.35.4-.86-.07-.02z" stroke="#3a414a" stroke-width=".05" fill="#3a414a"/><path d="M3956.16 8569.5l-14.88-1.87 3.93-8.4z" fill="#3a414a"/><path d="M3957.63 8570.17l-17.1-2.13 4.52-9.64zm-15.6-2.95l12.67 1.58-9.33-8.73z" stroke="#3a414a" stroke-width=".05" fill="#3a414a"/><use xlink:href="#d" transform="matrix(1,0,0,1,3477.2451303574826,8391.74011719088) translate(0 37.475555555555545)"/><use xlink:href="#e" transform="matrix(1,0,0,1,3477.2451303574826,8391.74011719088) translate(106.75999999999996 37.475555555555545)"/><use xlink:href="#f" transform="matrix(1,0,0,1,3477.2451303574826,8391.74011719088) translate(138.41777777777773 37.475555555555545)"/><use xlink:href="#g" transform="matrix(1,0,0,1,3477.2451303574826,8391.74011719088) translate(204.1888888888888 37.475555555555545)"/><path d="M3173.05 8114.53h-1v-54.47h1zm0-151.34h-1v-76.72h1z" stroke="#3a414a" stroke-width=".05" fill="#3a414a"/><path d="M3173.05 8115.06l-.5-.03-.5.03v-.54h1z" fill="#3a414a"/><path d="M3173.07 8115.08l-.52-.02-.53.02v-.6h1.05zm-1-.54v.5l.48-.03.47.03v-.5z" stroke="#3a414a" stroke-width=".05" fill="#3a414a"/><path d="M3177.2 7885.98h-9.3l4.65-14.27z" fill="#3a414a"/><path d="M3177.87 7886.48h-10.64l5.32-16.4zm-9.27-1h7.9l-3.95-12.15z" stroke="#3a414a" stroke-width=".05" fill="#3a414a"/><use xlink:href="#h" transform="matrix(1,0,0,1,3025.3485001029217,7963.192375854292) translate(0.0049999999999954525 37.475555555555545)"/><use xlink:href="#i" transform="matrix(1,0,0,1,3025.3485001029217,7963.192375854292) translate(88.48055555555553 37.475555555555545)"/><use xlink:href="#j" transform="matrix(1,0,0,1,3025.3485001029217,7963.192375854292) translate(159.0116666666666 37.475555555555545)"/><use xlink:href="#k" transform="matrix(1,0,0,1,3025.3485001029217,7963.192375854292) translate(49.323888888888874 85.90666666666664)"/><use xlink:href="#l" transform="matrix(1,0,0,1,3025.3485001029217,7963.192375854292) translate(115.09499999999996 85.90666666666664)"/><path d="M2442.37 8121.1a6 6 0 0 1 6-6h398.5a6 6 0 0 1 6 6v198.08a6 6 0 0 1-6 6h-398.5a6 6 0 0 1-6-6z" stroke="#000" stroke-opacity="0" fill="#6db1ff"/><use xlink:href="#m" transform="matrix(1,0,0,1,2454.3730886832504,8127.086950674407) translate(120.66666666666669 82.79069444444443)"/><use xlink:href="#n" transform="matrix(1,0,0,1,2454.3730886832504,8127.086950674407) translate(77.91666666666671 136.9195833333333)"/><use xlink:href="#o" transform="matrix(1,0,0,1,2454.3730886832504,8127.086950674407) translate(191.5366666666667 136.9195833333333)"/><path d="M3302.35 8179.74l-.42-.9 228.24-105.75h2.38zm652.5-302.3l-317.76 147.22h-2.4l319.73-148.13z" stroke="#3a414a" stroke-width=".05" fill="#3a414a"/><path d="M3302.36 8179.73l-.1.05-1.14-.57.83-.38z" fill="#3a414a"/><path d="M3302.4 8179.74l-.14.07-1.2-.6.9-.4zm-1.22-.53l1.08.56.07-.04-.4-.86z" stroke="#3a414a" stroke-width=".05" fill="#3a414a"/><path d="M3957.05 7880.98l-3.9-8.42 14.9-1.8z" fill="#3a414a"/><path d="M3956.88 7881.8l-4.47-9.65 17.1-2.06zm-3-8.82l3.33 7.16 9.37-8.7z" stroke="#3a414a" stroke-width=".05" fill="#3a414a"/><use xlink:href="#p" transform="matrix(1,0,0,1,3367.294625902061,8024.6559295352945) translate(0 37.475555555555545)"/><use xlink:href="#q" transform="matrix(1,0,0,1,3367.294625902061,8024.6559295352945) translate(74.42222222222219 37.475555555555545)"/><use xlink:href="#r" transform="matrix(1,0,0,1,3367.294625902061,8024.6559295352945) translate(140.19333333333327 37.475555555555545)"/><use xlink:href="#s" transform="matrix(1,0,0,1,3367.294625902061,8024.6559295352945) translate(316.2377777777777 37.475555555555545)"/><path d="M3173.05 8553.8h-1v-100.94h1zm0-149.37h-1v-78.7h1z" stroke="#3a414a" stroke-width=".05" fill="#3a414a"/><path d="M3172.55 8325.24l.5-.03v.55h-1v-.54z" fill="#3a414a"/><path d="M3172.55 8325.2l.52-.02v.6h-1.05v-.6zm-.48.52h.95v-.48l-.47.02-.48-.02z" stroke="#3a414a" stroke-width=".05" fill="#3a414a"/><path d="M3172.55 8568.56l-4.64-14.27h9.28z" fill="#3a414a"/><path d="M3172.55 8570.17l-5.32-16.38h10.64zm-3.95-15.38l3.95 12.14 3.95-12.15z" stroke="#3a414a" stroke-width=".05" fill="#3a414a"/><use xlink:href="#t" transform="matrix(1,0,0,1,3138.41738899181,8404.427119637507) translate(0 37.475555555555545)"/><path d="M3021.77 7665.8a7.8 7.8 0 0 1 7.55-5.8h342.48a4.6 4.6 0 0 1 4.46 5.8l-52.94 198.5a7.8 7.8 0 0 1-7.54 5.8H2973.3a4.6 4.6 0 0 1-4.46-5.8z" stroke="#000" stroke-opacity="0" stroke-width="3" fill="#ffdda6"/><use xlink:href="#u" transform="matrix(1,0,0,1,2972.295792401075,7665) translate(65.0616666666667 85.85319444444443)"/><use xlink:href="#v" transform="matrix(1,0,0,1,2972.295792401075,7665) translate(184.93055555555554 85.85319444444443)"/><use xlink:href="#w" transform="matrix(1,0,0,1,2972.295792401075,7665) translate(220.31277777777777 85.85319444444443)"/><use xlink:href="#x" transform="matrix(1,0,0,1,2972.295792401075,7665) translate(99.2716666666667 139.9820833333333)"/><path d="M3172.55 7659.5V7546.48" stroke="#3a414a" fill="none"/><path d="M3173.05 7660h-1v-.5h1z" stroke="#3a414a" stroke-width=".05" fill="#3a414a"/><path d="M3172.55 7531.7l4.63 14.28h-9.27z" stroke="#3a414a" fill="#3a414a"/><path d="M2966.8 7085.05h-313.17a6 6 0 0 0-6 6V8098.7" stroke="#3a414a" fill="none"/><path d="M2967.3 7085.55h-.52v-1h.52z" stroke="#3a414a" stroke-width=".05" fill="#3a414a"/><path d="M2647.63 8113.47l-4.64-14.27h9.26z" stroke="#3a414a" fill="#3a414a"/><path d="M3957.63 8780.77V8893.8" stroke="#3a414a" fill="none"/><path d="M3958.13 8780.78h-1v-.5h1z" stroke="#3a414a" stroke-width=".05" fill="#3a414a"/><path d="M3957.63 8908.56l-4.64-14.27h9.26z" stroke="#3a414a" fill="#3a414a"/><path d="M3307.77 8570.17c38.68 0 70.03 31.36 70.03 70.03 0 38.68-31.35 70.03-70.03 70.03h-270.44c-38.68 0-70.03-31.35-70.03-70.02 0-38.67 31.35-70.03 70.03-70.03z" stroke="#000" stroke-opacity="0" fill="#00c2a8"/><use xlink:href="#y" transform="matrix(1,0,0,1,2972.295792401073,8575.173901348813) translate(161.745 78.72819444444443)"/><path d="M2967.3 7326a6 6 0 0 1 6-6h398.5a6 6 0 0 1 6 6v198.1a6 6 0 0 1-6 6h-398.5a6 6 0 0 1-6-6z" stroke="#000" stroke-opacity="0" fill="#6db1ff"/><use xlink:href="#z" transform="matrix(1,0,0,1,2972.2957924010725,7325) translate(7.755555555555588 85.85319444444443)"/><use xlink:href="#A" transform="matrix(1,0,0,1,2972.2957924010725,7325) translate(207.42444444444445 85.85319444444443)"/><use xlink:href="#B" transform="matrix(1,0,0,1,2972.2957924010725,7325) translate(85.5077777777778 139.9820833333333)"/><path d="M3696.2 8916.17a6 6 0 0 1 6-6h510.87a6 6 0 0 1 6 6v198.1a6 6 0 0 1-6 6H3702.2a6 6 0 0 1-6-6z" stroke="#000" stroke-opacity="0" fill="#6db1ff"/><use xlink:href="#C" transform="matrix(1,0,0,1,3701.186546251896,8915.173901348815) translate(26.790000000000077 85.85319444444443)"/><use xlink:href="#D" transform="matrix(1,0,0,1,3701.186546251896,8915.173901348815) translate(171.06333333333336 85.85319444444443)"/><use xlink:href="#E" transform="matrix(1,0,0,1,3701.186546251896,8915.173901348815) translate(259.98333333333335 85.85319444444443)"/><use xlink:href="#F" transform="matrix(1,0,0,1,3701.186546251896,8915.173901348815) translate(417.00777777777773 85.85319444444443)"/><use xlink:href="#G" transform="matrix(1,0,0,1,3701.186546251896,8915.173901348815) translate(68.37888888888892 139.9820833333333)"/><use xlink:href="#H" transform="matrix(1,0,0,1,3701.186546251896,8915.173901348815) translate(197.79 139.9820833333333)"/><path d="M5860 8700.78a6 6 0 0 1 6-6h148a6 6 0 0 1 6 6v128a6 6 0 0 1-6 6h-148a6 6 0 0 1-6-6z" stroke="#000" stroke-opacity="0" fill-opacity="0"/><path d="M1840 8120.98a6 6 0 0 1 6-6h489.7a6 6 0 0 1 6 6v198.1a6 6 0 0 1-6 6H1846a6 6 0 0 1-6-6z" stroke="#000" stroke-opacity="0" fill="#6db1ff"/><use xlink:href="#I" transform="matrix(1,0,0,1,1852,8126.98462011834) translate(53.918888888888944 82.79069444444443)"/><use xlink:href="#J" transform="matrix(1,0,0,1,1852,8126.98462011834) translate(252.02555555555557 82.79069444444443)"/><use xlink:href="#K" transform="matrix(1,0,0,1,1852,8126.98462011834) translate(19.887777777777842 136.9195833333333)"/><use xlink:href="#L" transform="matrix(1,0,0,1,1852,8126.98462011834) translate(100.4477777777778 136.9195833333333)"/><use xlink:href="#M" transform="matrix(1,0,0,1,1852,8126.98462011834) translate(267.8588888888889 136.9195833333333)"/><use xlink:href="#N" transform="matrix(1,0,0,1,1852,8126.98462011834) translate(363.2388888888888 136.9195833333333)"/><path d="M1739.82 8220.03h83.8" stroke="#3a414a" fill="none"/><path d="M1739.83 8220.53h-.53l.02-.5-.02-.5h.53z" stroke="#3a414a" stroke-width=".05" fill="#3a414a"/><path d="M1838.38 8220.03l-14.26 4.64v-9.27z" stroke="#3a414a" fill="#3a414a"/><path d="M3764.26 7326a6 6 0 0 1 6-6h398.5a6 6 0 0 1 6 6v198.1a6 6 0 0 1-6 6h-398.5a6 6 0 0 1-6-6z" stroke="#000" stroke-opacity="0" fill="#6db1ff"/><use xlink:href="#m" transform="matrix(1,0,0,1,3776.256578728291,7332) translate(120.66666666666669 82.79069444444443)"/><use xlink:href="#O" transform="matrix(1,0,0,1,3776.256578728291,7332) translate(89.04222222222225 136.9195833333333)"/><path d="M3969.5 7659.5V7546.48" stroke="#3a414a" fill="none"/><path d="M3970 7660h-1v-.5h1z" stroke="#3a414a" stroke-width=".05" fill="#3a414a"/><path d="M3969.5 7531.7l4.65 14.28h-9.28z" stroke="#3a414a" fill="#3a414a"/><path d="M3964.17 6802.73a11.72 11.72 0 0 1 10.68 0l194.57 99.58a3.07 3.07 0 0 1 0 5.48l-194.57 99.58a11.72 11.72 0 0 1-10.68 0l-194.57-99.58a3.07 3.07 0 0 1 0-5.47z" stroke="#1071e5" stroke-width="3" fill="#fff"/><use xlink:href="#P" transform="matrix(1,0,0,1,3769.256578728291,6805) translate(96.04722222222226 89.89444444444442)"/><use xlink:href="#c" transform="matrix(1,0,0,1,3769.256578728291,6805) translate(128.79722222222227 144.02333333333328)"/><path d="M3969.5 7319.5v-292.97" stroke="#3a414a" fill="none"/><path d="M3970 7320h-1v-.5h1z" stroke="#3a414a" stroke-width=".05" fill="#3a414a"/><path d="M3969.5 7011.77l4.65 14.26h-9.28z" stroke="#3a414a" fill="#3a414a"/><path d="M3970 6799.44h-1v-183.48h1zm0-231.9h-1v-121.06h1z" stroke="#3a414a" stroke-width=".05" fill="#3a414a"/><path d="M3970 6799.97l-.5-.03-.5.03v-.54h1z" fill="#3a414a"/><path d="M3970.03 6800l-.52-.03-.5.02v-.6h1.03zm-1-.54v.48l.48-.02.5.02v-.48z" stroke="#3a414a" stroke-width=".05" fill="#3a414a"/><path d="M3974.15 6445.98h-9.28l4.64-14.27z" fill="#3a414a"/><path d="M3974.83 6446.48h-10.64l5.3-16.4zm-9.27-1h7.9l-3.95-12.15z" stroke="#3a414a" stroke-width=".05" fill="#3a414a"/><use xlink:href="#p" transform="matrix(1,0,0,1,3793.8059530968044,6567.529619394313) translate(0 37.475555555555545)"/><use xlink:href="#Q" transform="matrix(1,0,0,1,3793.8059530968044,6567.529619394313) translate(74.42222222222219 37.475555555555545)"/><use xlink:href="#R" transform="matrix(1,0,0,1,3793.8059530968044,6567.529619394313) translate(127.38666666666661 37.475555555555545)"/><use xlink:href="#S" transform="matrix(1,0,0,1,3793.8059530968044,6567.529619394313) translate(210.57333333333327 37.475555555555545)"/><use xlink:href="#T" transform="matrix(1,0,0,1,3793.8059530968044,6567.529619394313) translate(255.30222222222213 37.475555555555545)"/><path d="M3866.17 6850.44l-.55.83-171.27-113.92h1.8zm-242.82-161.52h-1.8l-156.8-104.3.56-.82z" stroke="#3a414a" stroke-width=".05" fill="#3a414a"/><path d="M3866.82 6850.87l-1.02.52-.2-.14.56-.83z" fill="#3a414a"/><path d="M3866.87 6850.87l-1.07.55-.23-.15.58-.87zm-1.23.4l.16.1.97-.5-.6-.4z" stroke="#3a414a" stroke-width=".05" fill="#3a414a"/><path d="M3467.2 6580.08l-5.15 7.72-9.3-11.77z" fill="#3a414a"/><path d="M3467.98 6579.78l-5.9 8.87-10.7-13.5zm-5.96 7.16l4.37-6.57-12.3-3.44z" stroke="#3a414a" stroke-width=".05" fill="#3a414a"/><use xlink:href="#U" transform="matrix(1,0,0,1,3494.537551555639,6688.9194294858435) translate(0 37.475555555555545)"/><use xlink:href="#e" transform="matrix(1,0,0,1,3494.537551555639,6688.9194294858435) translate(241.36222222222213 37.475555555555545)"/><use xlink:href="#V" transform="matrix(1,0,0,1,3494.537551555639,6688.9194294858435) translate(273.01999999999987 37.475555555555545)"/><path d="M4071.28 6850.2l-.53-.84 143-88.34h1.9zm430.68-266.03l-129.5 80h-1.9l130.88-80.85z" stroke="#3a414a" stroke-width=".05" fill="#3a414a"/><path d="M4071.3 6850.2l-.2.1-1.03-.52.7-.43z" fill="#3a414a"/><path d="M4071.32 6850.2l-.2.14-1.1-.56.75-.46zm-1.2-.42l1 .5.13-.1-.5-.8z" stroke="#3a414a" stroke-width=".05" fill="#3a414a"/><path d="M4504.56 6587.43l-4.87-7.9 14.56-3.54z" fill="#3a414a"/><path d="M4504.5 6588.28l-5.6-9.06 16.74-4.08zm-4.02-8.4l4.15 6.7 8.26-9.74z" stroke="#3a414a" stroke-width=".05" fill="#3a414a"/><use xlink:href="#p" transform="matrix(1,0,0,1,4143.891882505244,6664.160910757398) translate(0.0049999999999954525 37.475555555555545)"/><use xlink:href="#W" transform="matrix(1,0,0,1,4143.891882505244,6664.160910757398) translate(74.42722222222218 37.475555555555545)"/><use xlink:href="#S" transform="matrix(1,0,0,1,4143.891882505244,6664.160910757398) translate(157.61388888888882 37.475555555555545)"/><use xlink:href="#X" transform="matrix(1,0,0,1,4143.891882505244,6664.160910757398) translate(202.34277777777768 37.475555555555545)"/><use xlink:href="#Y" transform="matrix(1,0,0,1,4143.891882505244,6664.160910757398) translate(41.31499999999998 85.90666666666664)"/><use xlink:href="#Z" transform="matrix(1,0,0,1,4143.891882505244,6664.160910757398) translate(94.43055555555551 85.90666666666664)"/><use xlink:href="#aa" transform="matrix(1,0,0,1,4143.891882505244,6664.160910757398) translate(160.2016666666666 85.90666666666664)"/><path d="M4482.28 7235.55l-.55.83-127.6-85h1.8zm-271.73-181.04h-1.8l-139.57-92.97.56-.83z" stroke="#3a414a" stroke-width=".05" fill="#3a414a"/><path d="M4069.75 6960.7l-.55.84-.66-.44 1-.52z" fill="#3a414a"/><path d="M4069.78 6960.7l-.58.87-.7-.47 1.06-.55zm-1.2.4l.6.4.54-.8-.17-.1z" stroke="#3a414a" stroke-width=".05" fill="#3a414a"/><path d="M4494.3 7244.15l-14.45-4.05 5.14-7.72z" fill="#3a414a"/><path d="M4495.64 7245.05l-16.6-4.66 5.92-8.87zm-15-5.25l12.3 3.45-7.9-10.02z" stroke="#3a414a" stroke-width=".05" fill="#3a414a"/><use xlink:href="#p" transform="matrix(1,0,0,1,4058.6789787441917,7054.510248104136) translate(0.0049999999999954525 37.475555555555545)"/><use xlink:href="#ab" transform="matrix(1,0,0,1,4058.6789787441917,7054.510248104136) translate(74.42722222222218 37.475555555555545)"/><use xlink:href="#ac" transform="matrix(1,0,0,1,4058.6789787441917,7054.510248104136) translate(320.66277777777765 37.475555555555545)"/><use xlink:href="#ad" transform="matrix(1,0,0,1,4058.6789787441917,7054.510248104136) translate(15.456111111111056 85.90666666666664)"/><use xlink:href="#ae" transform="matrix(1,0,0,1,4058.6789787441917,7054.510248104136) translate(207.85833333333323 85.90666666666664)"/><use xlink:href="#S" transform="matrix(1,0,0,1,4058.6789787441917,7054.510248104136) translate(291.0449999999999 85.90666666666664)"/><use xlink:href="#T" transform="matrix(1,0,0,1,4058.6789787441917,7054.510248104136) translate(335.7738888888888 85.90666666666664)"/><path d="M3003.9 6905.55h-350.25l-.88.06-.84.22-.8.33-.74.45-.66.56-.56.65-.45.75-.33.8-.2.84-.07.87V8098.7h-1V6911.03l.07-1 .24-1 .4-.94.53-.88.66-.77.77-.66.88-.55.94-.4 1-.23 1-.07h350.3zm762.02 0h-408.68v-1h408.68z" stroke="#3a414a" stroke-width=".05" fill="#3a414a"/><path d="M3766.42 6905.05l.05.5h-.57v-1h.57z" fill="#3a414a"/><path d="M3766.44 6905.05l.06.52h-.62v-1.05h.62zm-.5-.48v.95h.5l-.05-.47.04-.48z" stroke="#3a414a" stroke-width=".05" fill="#3a414a"/><path d="M2647.63 8113.47l-4.64-14.27h9.26z" fill="#3a414a"/><path d="M2647.63 8115.1l-5.33-16.4h10.65zm-3.95-15.4l3.95 12.15 3.94-12.15z" stroke="#3a414a" stroke-width=".05" fill="#3a414a"/><use xlink:href="#af" transform="matrix(1,0,0,1,3003.906166046906,6880.8305840894245) translate(0 37.475555555555545)"/><use xlink:href="#ag" transform="matrix(1,0,0,1,3003.906166046906,6880.8305840894245) translate(96.86222222222219 37.475555555555545)"/><use xlink:href="#ah" transform="matrix(1,0,0,1,3003.906166046906,6880.8305840894245) translate(144.80222222222216 37.475555555555545)"/><use xlink:href="#ai" transform="matrix(1,0,0,1,3003.906166046906,6880.8305840894245) translate(247.10444444444434 37.475555555555545)"/><path d="M3764.26 6226a6 6 0 0 1 6-6h398.5a6 6 0 0 1 6 6v198.1a6 6 0 0 1-6 6h-398.5a6 6 0 0 1-6-6z" stroke="#000" stroke-opacity="0" fill="#6db1ff"/><g><use xlink:href="#aj" transform="matrix(1,0,0,1,3769.256578728291,6225) translate(34.08111111111114 85.85319444444443)"/><use xlink:href="#ak" transform="matrix(1,0,0,1,3769.256578728291,6225) translate(191.10555555555555 85.85319444444443)"/><use xlink:href="#al" transform="matrix(1,0,0,1,3769.256578728291,6225) translate(254.6922222222222 85.85319444444443)"/><use xlink:href="#K" transform="matrix(1,0,0,1,3769.256578728291,6225) translate(36.8044444444445 139.9820833333333)"/><use xlink:href="#am" transform="matrix(1,0,0,1,3769.256578728291,6225) translate(117.36444444444446 139.9820833333333)"/></g><path d="M2893.2 6575.14h-239.57a6 6 0 0 0-6 6V8098.7" stroke="#3a414a" fill="none"/><path d="M2893.7 6575.64h-.5v-1h.5z" stroke="#3a414a" stroke-width=".05" fill="#3a414a"/><path d="M2647.63 8113.47l-4.64-14.27h9.26z" stroke="#3a414a" fill="#3a414a"/><path d="M3763.76 6325.55h-1110.1l-.9.06-.83.22-.8.33-.74.45-.66.56-.56.65-.45.75-.33.8-.2.84-.07.87V8098.7h-1V6331.03l.07-1 .24-1 .4-.94.53-.88.66-.77.77-.66.88-.55.94-.4 1-.23 1-.07h1110.14z" stroke="#3a414a" stroke-width=".05" fill="#3a414a"/><path d="M3764.26 6325.55h-.52v-1h.52z" fill="#3a414a"/><path d="M3764.28 6325.57h-.56v-1.05h.56zm-.5-1v.95h.45v-.95z" stroke="#3a414a" stroke-width=".05" fill="#3a414a"/><path d="M2647.63 8113.47l-4.64-14.27h9.26z" fill="#3a414a"/><path d="M2647.63 8115.1l-5.33-16.4h10.65zm-3.95-15.4l3.95 12.15 3.94-12.15z" stroke="#3a414a" stroke-width=".05" fill="#3a414a"/><path d="M5080 6476.1a6 6 0 0 1 6-6h398.5a6 6 0 0 1 6 6v198.1a6 6 0 0 1-6 6H5086a6 6 0 0 1-6-6z" stroke="#000" stroke-opacity="0" fill="#6db1ff"/><g><use xlink:href="#aj" transform="matrix(1,0,0,1,5085,6475.09227928996) translate(87.3866666666667 85.85319444444443)"/><use xlink:href="#an" transform="matrix(1,0,0,1,5085,6475.09227928996) translate(244.4111111111111 85.85319444444443)"/><use xlink:href="#H" transform="matrix(1,0,0,1,5085,6475.09227928996) translate(77.08444444444447 139.9820833333333)"/></g><path d="M4920.1 6575.14h143.52" stroke="#3a414a" fill="none"/><path d="M4920.13 6575.64h-.65l.27-1h.38z" stroke="#3a414a" stroke-width=".05" fill="#3a414a"/><path d="M5078.38 6575.14l-14.26 4.63v-9.27z" stroke="#3a414a" fill="#3a414a"/><path d="M5285.75 6899.07l-.07 1-.24 1-.4.93-.53.87-.65.77-.78.67-.86.54-.94.4-1 .23-1 .08H4189v-1h1090.23l.88-.07.85-.2.8-.34.74-.45.64-.57.56-.65.45-.74.33-.8.2-.83.07-.87V6680.7h1z" stroke="#3a414a" stroke-width=".05" fill="#3a414a"/><path d="M5285.75 6680.7h-1v-.5h1z" fill="#3a414a"/><path d="M5285.78 6680.72h-1.05v-.56h1.05zm-1-.5v.45h.95v-.46z" stroke="#3a414a" stroke-width=".05" fill="#3a414a"/><path d="M4188.5 6909.68l-14.28-4.63 14.27-4.64z" fill="#3a414a"/><path d="M4189 6910.37l-16.4-5.32 16.4-5.33zm-13.16-5.32L4188 6909v-7.9z" stroke="#3a414a" stroke-width=".05" fill="#3a414a"/><path d="M5080 7146a6 6 0 0 1 6-6h398.5a6 6 0 0 1 6 6v198.1a6 6 0 0 1-6 6H5086a6 6 0 0 1-6-6z" stroke="#000" stroke-opacity="0" fill="#6db1ff"/><g><use xlink:href="#aj" transform="matrix(1,0,0,1,5085,7145) translate(87.3866666666667 85.85319444444443)"/><use xlink:href="#an" transform="matrix(1,0,0,1,5085,7145) translate(244.4111111111111 85.85319444444443)"/><use xlink:href="#H" transform="matrix(1,0,0,1,5085,7145) translate(77.08444444444447 139.9820833333333)"/></g><path d="M4900.1 7245.05h163.52" stroke="#3a414a" fill="none"/><path d="M4900.13 7245.55h-.65l.27-1h.38z" stroke="#3a414a" stroke-width=".05" fill="#3a414a"/><path d="M5078.38 7245.05l-14.26 4.63v-9.27z" stroke="#3a414a" fill="#3a414a"/><path d="M5280.27 6904.63l1 .23.93.4.88.53.77.65.66.78.55.86.4.94.23 1 .07 1v228.46h-1v-228.43l-.06-.88-.22-.85-.33-.8-.45-.74-.56-.64-.65-.56-.75-.45-.8-.33-.84-.2-.87-.07H4189v-1h1090.27z" stroke="#3a414a" stroke-width=".05" fill="#3a414a"/><path d="M5285.75 7140h-1v-.5h1z" fill="#3a414a"/><path d="M5285.78 7140.02h-1.05v-.56h1.05zm-1-.5v.45h.95v-.46z" stroke="#3a414a" stroke-width=".05" fill="#3a414a"/><path d="M4188.5 6909.68l-14.28-4.63 14.27-4.64z" fill="#3a414a"/><path d="M4189 6910.37l-16.4-5.32 16.4-5.33zm-13.16-5.32L4188 6909v-7.9z" stroke="#3a414a" stroke-width=".05" fill="#3a414a"/><path d="M2967.3 6986a6 6 0 0 1 6-6h398.5a6 6 0 0 1 6 6v198.1a6 6 0 0 1-6 6h-398.5a6 6 0 0 1-6-6z" stroke="#000" stroke-opacity="0" fill="#6db1ff"/><g><use xlink:href="#aj" transform="matrix(1,0,0,1,2972.2957924010725,6985) translate(43.96111111111114 85.85319444444443)"/><use xlink:href="#ao" transform="matrix(1,0,0,1,2972.2957924010725,6985) translate(200.98555555555555 85.85319444444443)"/><use xlink:href="#H" transform="matrix(1,0,0,1,2972.2957924010725,6985) translate(77.08444444444447 139.9820833333333)"/></g><path d="M3172.55 7319.5V7206.48" stroke="#3a414a" fill="none"/><path d="M3173.05 7320h-1v-.5h1z" stroke="#3a414a" stroke-width=".05" fill="#3a414a"/><path d="M3172.55 7191.7l4.63 14.28h-9.27z" stroke="#3a414a" fill="#3a414a"/><path d="M2893.7 6476.1a6 6 0 0 1 6-6h545.7a6 6 0 0 1 6 6v198.1a6 6 0 0 1-6 6h-545.7a6 6 0 0 1-6-6z" stroke="#000" stroke-opacity="0" fill="#6db1ff"/><g><use xlink:href="#ap" transform="matrix(1,0,0,1,2898.7053348417758,6475.09227928996) translate(59.34222222222226 85.85319444444443)"/><use xlink:href="#aq" transform="matrix(1,0,0,1,2898.7053348417758,6475.09227928996) translate(275.9844444444444 85.85319444444443)"/><use xlink:href="#ar" transform="matrix(1,0,0,1,2898.7053348417758,6475.09227928996) translate(411.0955555555555 85.85319444444443)"/><use xlink:href="#E" transform="matrix(1,0,0,1,2898.7053348417758,6475.09227928996) translate(31.79222222222228 139.9820833333333)"/><use xlink:href="#as" transform="matrix(1,0,0,1,2898.7053348417758,6475.09227928996) translate(188.8166666666667 139.9820833333333)"/><use xlink:href="#H" transform="matrix(1,0,0,1,2898.7053348417758,6475.09227928996) translate(269.37666666666667 139.9820833333333)"/></g><path d="M2648.13 9009.2l.07.88.2.84.33.8.45.73.56.66.66.57.73.45.8.33.84.2.88.07H3695.7v1H2653.6l-1-.08-.98-.24-.94-.4-.88-.52-.77-.66-.66-.78-.54-.87-.4-.94-.22-1-.07-1v-667.67h1z" stroke="#3a414a" stroke-width=".05" fill="#3a414a"/><path d="M3696.2 9015.72h-.53v-1h.52z" fill="#3a414a"/><path d="M3696.2 9015.75h-.55v-1.06h.56zm-.5-1v.94h.46v-.95z" stroke="#3a414a" stroke-width=".05" fill="#3a414a"/><path d="M2652.26 8341.06H2643l4.63-14.26z" fill="#3a414a"/><path d="M2652.95 8341.56h-10.65l5.33-16.38zm-9.27-1h7.9l-3.95-12.14z" stroke="#3a414a" stroke-width=".05" fill="#3a414a"/><path d="M3818.74 7665.8a7.8 7.8 0 0 1 7.54-5.8h342.48a4.6 4.6 0 0 1 4.46 5.8l-52.93 198.5a7.8 7.8 0 0 1-7.56 5.8h-342.48a4.6 4.6 0 0 1-4.46-5.8z" stroke="#000" stroke-opacity="0" stroke-width="3" fill="#ffdda6"/><g><use xlink:href="#u" transform="matrix(1,0,0,1,3769.256578728291,7665) translate(99.3038888888889 85.85319444444443)"/><use xlink:href="#v" transform="matrix(1,0,0,1,3769.256578728291,7665) translate(219.17277777777775 85.85319444444443)"/><use xlink:href="#at" transform="matrix(1,0,0,1,3769.256578728291,7665) translate(254.55499999999998 85.85319444444443)"/><use xlink:href="#au" transform="matrix(1,0,0,1,3769.256578728291,7665) translate(90.82722222222226 139.9820833333333)"/><use xlink:href="#av" transform="matrix(1,0,0,1,3769.256578728291,7665) translate(247.47166666666666 139.9820833333333)"/></g><path d="M4542.1 6475.9a7.8 7.8 0 0 1 7.55-5.8h391.98a4.6 4.6 0 0 1 4.45 5.8l-52.93 198.5a7.8 7.8 0 0 1-7.55 5.8h-391.97a4.6 4.6 0 0 1-4.46-5.8z" stroke="#000" stroke-opacity="0" stroke-width="3" fill="#ffdda6"/><g><use xlink:href="#aw" transform="matrix(1,0,0,1,4492.626907496208,6475.09227928996) translate(91.37722222222226 85.85319444444443)"/><use xlink:href="#ax" transform="matrix(1,0,0,1,4492.626907496208,6475.09227928996) translate(211.2461111111111 85.85319444444443)"/><use xlink:href="#ay" transform="matrix(1,0,0,1,4492.626907496208,6475.09227928996) translate(284.755 85.85319444444443)"/><use xlink:href="#az" transform="matrix(1,0,0,1,4492.626907496208,6475.09227928996) translate(49.467222222222304 139.9820833333333)"/></g><path d="M4522.1 7145.8a7.8 7.8 0 0 1 7.55-5.8h391.98a4.6 4.6 0 0 1 4.45 5.8l-52.93 198.5a7.8 7.8 0 0 1-7.55 5.8h-391.97a4.6 4.6 0 0 1-4.46-5.8z" stroke="#000" stroke-opacity="0" stroke-width="3" fill="#ffdda6"/><g><use xlink:href="#u" transform="matrix(1,0,0,1,4472.626907496208,7145) translate(51.667222222222286 85.85319444444443)"/><use xlink:href="#aA" transform="matrix(1,0,0,1,4472.626907496208,7145) translate(171.53611111111113 85.85319444444443)"/><use xlink:href="#aB" transform="matrix(1,0,0,1,4472.626907496208,7145) translate(324.465 85.85319444444443)"/><use xlink:href="#aC" transform="matrix(1,0,0,1,4472.626907496208,7145) translate(119.64833333333335 139.9820833333333)"/></g><path d="M3782.1 8575.97a7.8 7.8 0 0 1 7.55-5.8h391.98a4.6 4.6 0 0 1 4.45 5.8l-52.93 198.5a7.8 7.8 0 0 1-7.55 5.8h-391.97a4.6 4.6 0 0 1-4.46-5.8z" stroke="#000" stroke-opacity="0" stroke-width="3" fill="#ffdda6"/><g><use xlink:href="#u" transform="matrix(1,0,0,1,3732.62691131675,8575.173901348815) translate(63.17277777777782 85.85319444444443)"/><use xlink:href="#aD" transform="matrix(1,0,0,1,3732.62691131675,8575.173901348815) translate(183.04166666666666 85.85319444444443)"/><use xlink:href="#aE" transform="matrix(1,0,0,1,3732.62691131675,8575.173901348815) translate(256.55055555555555 85.85319444444443)"/><use xlink:href="#aF" transform="matrix(1,0,0,1,3732.62691131675,8575.173901348815) translate(83.40055555555561 139.9820833333333)"/><use xlink:href="#aG" transform="matrix(1,0,0,1,3732.62691131675,8575.173901348815) translate(142.4694444444445 139.9820833333333)"/><use xlink:href="#aH" transform="matrix(1,0,0,1,3732.62691131675,8575.173901348815) translate(231.38944444444445 139.9820833333333)"/><use xlink:href="#av" transform="matrix(1,0,0,1,3732.62691131675,8575.173901348815) translate(304.8983333333333 139.9820833333333)"/></g><defs><path fill="#3a414a" d="M540-200C550 52 170 69 26-64l63-83c71 67 317 99 317-48 0-96-79-102-162-127-111-33-193-77-195-204-4-228 334-244 479-129l-59 85c-50-30-95-49-167-50-67 0-123 23-123 86 0 82 64 84 147 110 123 38 208 79 214 224" id="aI"/><path fill="#3a414a" d="M266 14c-103 1-166-60-165-163v-271H15v-80l85-15v-123l126-44v167h129v95H226v259c-6 69 55 85 113 68l18 92c-25 10-56 15-91 15" id="aJ"/><path fill="#3a414a" d="M206 14C110 14 37-46 38-146c2-168 152-185 331-181 25-144-173-124-258-70l-42-83c50-30 124-54 200-54 156 0 223 66 225 217 2 121-6 199 9 317H388c-5-27-8-47-9-59h-3c-39 49-83 73-170 73zm36-98c87-3 138-59 128-159-104-1-200-4-202 88-1 45 29 73 74 71" id="aK"/><path fill="#3a414a" d="M380-422c-108-21-177 50-177 149V0H78c-4-180 9-350-9-520h120c6 28 5 55 10 72 34-65 100-96 186-82" id="aL"/><g id="a"><use transform="matrix(0.04222222222222221,0,0,0.04222222222222221,0,0)" xlink:href="#aI"/><use transform="matrix(0.04222222222222221,0,0,0.04222222222222221,24.27777777777777,0)" xlink:href="#aJ"/><use transform="matrix(0.04222222222222221,0,0,0.04222222222222221,40.53333333333332,0)" xlink:href="#aK"/><use transform="matrix(0.04222222222222221,0,0,0.04222222222222221,64.55777777777776,0)" xlink:href="#aL"/><use transform="matrix(0.04222222222222221,0,0,0.04222222222222221,81.10888888888886,0)" xlink:href="#aJ"/></g><path fill="#3a414a" d="M858 0H730c0-185 5-375 1-557L513 0h-98c-73-185-142-374-217-557l4 557H80v-708h192c65 176 127 355 195 528l198-528h193V0" id="aM"/><path fill="#3a414a" d="M295-534c175 0 256 137 237 320H170c10 80 57 129 145 129 69-1 102-19 149-47l54 80c-56 41-119 66-211 66C138 14 46-91 44-260c-2-161 90-274 251-274zm117 226c-3-74-41-132-118-132-79 0-120 59-125 132h243" id="aN"/><path fill="#3a414a" d="M330-430c-79 0-127 62-127 141V0H78c-4-180 9-350-9-520h120c5 20 4 44 10 60 33-43 94-75 172-74 122 1 190 74 190 190V0H436v-317c-1-69-32-113-106-113" id="aO"/><path fill="#3a414a" d="M269 14C141 14 72-75 72-200v-320h126v301c0 78 28 134 105 134 81 0 128-71 128-153v-282h125c4 175-9 357 9 520H445c-6-24-5-47-10-61-37 50-92 75-166 75" id="aP"/><g id="b"><use transform="matrix(0.04222222222222221,0,0,0.04222222222222221,0,0)" xlink:href="#aM"/><use transform="matrix(0.04222222222222221,0,0,0.04222222222222221,39.60444444444443,0)" xlink:href="#aN"/><use transform="matrix(0.04222222222222221,0,0,0.04222222222222221,64.05111111111108,0)" xlink:href="#aO"/><use transform="matrix(0.04222222222222221,0,0,0.04222222222222221,90.77777777777776,0)" xlink:href="#aP"/></g><path fill="#3a414a" d="M406 19C174 19 44-123 44-354s130-373 362-373 363 142 363 373S638 19 406 19zm0-113c155 0 229-105 229-260s-74-260-229-260c-154 0-228 106-228 260S252-94 406-94" id="aQ"/><path fill="#3a414a" d="M367-534c156 0 224 117 224 273 0 157-81 275-237 275-60 0-110-17-151-50v280H78v-645c0-25-3-65-9-119h120c6 27 5 51 10 62 40-51 96-76 168-76zM324-85c97 0 138-75 138-176 0-99-35-171-124-173-77-2-135 64-135 141v166c37 24 66 41 121 42" id="aR"/><path fill="#3a414a" d="M203 0H78v-520h125V0zm-62-611c-51 0-77-26-77-71 0-48 26-72 77-72s77 26 77 72c0 45-28 71-77 71" id="aS"/><path fill="#3a414a" d="M314-534c172 0 271 101 271 272C585-92 485 14 314 14 144 14 44-93 44-262c0-171 98-272 270-272zm0 100c-102 0-140 71-140 172 0 102 39 177 141 177s142-75 142-177-40-172-143-172" id="aT"/><g id="c"><use transform="matrix(0.04222222222222221,0,0,0.04222222222222221,0,0)" xlink:href="#aQ"/><use transform="matrix(0.04222222222222221,0,0,0.04222222222222221,34.28444444444443,0)" xlink:href="#aR"/><use transform="matrix(0.04222222222222221,0,0,0.04222222222222221,60.92666666666665,0)" xlink:href="#aJ"/><use transform="matrix(0.04222222222222221,0,0,0.04222222222222221,77.1822222222222,0)" xlink:href="#aS"/><use transform="matrix(0.04222222222222221,0,0,0.04222222222222221,89.08888888888886,0)" xlink:href="#aT"/><use transform="matrix(0.04222222222222221,0,0,0.04222222222222221,115.68888888888885,0)" xlink:href="#aO"/></g><path fill="#333" d="M335-708c157 0 270 77 267 237-3 159-110 238-267 242H211V0H80v-708h255zm134 238c0-136-122-140-259-133v268h113c83 0 146-47 146-135" id="aU"/><path fill="#333" d="M203-708V0H78v-708h125" id="aV"/><path fill="#333" d="M206 14C110 14 37-46 38-146c2-168 152-185 331-181 25-144-173-124-258-70l-42-83c50-30 124-54 200-54 156 0 223 66 225 217 2 121-6 199 9 317H388c-5-27-8-47-9-59h-3c-39 49-83 73-170 73zm36-98c87-3 138-59 128-159-104-1-200-4-202 88-1 45 29 73 74 71" id="aW"/><path fill="#333" d="M44-261c0-170 96-273 266-273 65 0 123 19 174 56l-47 87c-40-26-82-39-126-39-98-1-141 69-141 169 0 97 44 171 139 170 41 0 84-13 129-40l45 89C436-9 374 14 299 14 127 14 44-98 44-261" id="aX"/><path fill="#333" d="M295-534c175 0 256 137 237 320H170c10 80 57 129 145 129 69-1 102-19 149-47l54 80c-56 41-119 66-211 66C138 14 46-91 44-260c-2-161 90-274 251-274zm117 226c-3-74-41-132-118-132-79 0-120 59-125 132h243" id="aY"/><g id="d"><use transform="matrix(0.037777777777777764,0,0,0.037777777777777764,0,0)" xlink:href="#aU"/><use transform="matrix(0.037777777777777764,0,0,0.037777777777777764,23.724444444444437,0)" xlink:href="#aV"/><use transform="matrix(0.037777777777777764,0,0,0.037777777777777764,34.377777777777766,0)" xlink:href="#aW"/><use transform="matrix(0.037777777777777764,0,0,0.037777777777777764,55.87333333333331,0)" xlink:href="#aX"/><use transform="matrix(0.037777777777777764,0,0,0.037777777777777764,74.72444444444442,0)" xlink:href="#aY"/></g><use transform="matrix(0.037777777777777764,0,0,0.037777777777777764,0,0)" xlink:href="#aW" id="e"/><path fill="#333" d="M380-422c-108-21-177 50-177 149V0H78c-4-180 9-350-9-520h120c6 28 5 55 10 72 34-65 100-96 186-82" id="aZ"/><g id="f"><use transform="matrix(0.037777777777777764,0,0,0.037777777777777764,0,0)" xlink:href="#aX"/><use transform="matrix(0.037777777777777764,0,0,0.037777777777777764,19.30444444444444,0)" xlink:href="#aW"/><use transform="matrix(0.037777777777777764,0,0,0.037777777777777764,40.79999999999998,0)" xlink:href="#aZ"/></g><path fill="#333" d="M314-534c172 0 271 101 271 272C585-92 485 14 314 14 144 14 44-93 44-262c0-171 98-272 270-272zm0 100c-102 0-140 71-140 172 0 102 39 177 141 177s142-75 142-177-40-172-143-172" id="ba"/><path fill="#333" d="M44-257c2-159 83-277 241-277 59 0 108 17 147 52v-226h125c4 237-9 482 8 708H449c-6-26-5-51-10-65-38 51-88 79-175 79C113 16 42-104 44-257zM298-85c79 1 134-62 134-142v-152c-34-36-77-54-128-54-90 1-130 79-130 176S212-88 298-85" id="bb"/><g id="g"><use transform="matrix(0.037777777777777764,0,0,0.037777777777777764,0,0)" xlink:href="#ba"/><use transform="matrix(0.037777777777777764,0,0,0.037777777777777764,23.79999999999999,0)" xlink:href="#aZ"/><use transform="matrix(0.037777777777777764,0,0,0.037777777777777764,38.079999999999984,0)" xlink:href="#bb"/><use transform="matrix(0.037777777777777764,0,0,0.037777777777777764,62.068888888888864,0)" xlink:href="#aY"/><use transform="matrix(0.037777777777777764,0,0,0.037777777777777764,83.9422222222222,0)" xlink:href="#aZ"/></g><path fill="#333" d="M527-601H211v197h275v107H211V0H80v-708h447v107" id="bc"/><path fill="#333" d="M203 0H78v-520h125V0zm-62-611c-51 0-77-26-77-71 0-48 26-72 77-72s77 26 77 72c0 45-28 71-77 71" id="bd"/><path fill="#333" d="M330-430c-79 0-127 62-127 141V0H78c-4-180 9-350-9-520h120c5 20 4 44 10 60 33-43 94-75 172-74 122 1 190 74 190 190V0H436v-317c-1-69-32-113-106-113" id="be"/><g id="h"><use transform="matrix(0.037777777777777764,0,0,0.037777777777777764,0,0)" xlink:href="#bc"/><use transform="matrix(0.037777777777777764,0,0,0.037777777777777764,19.757777777777765,0)" xlink:href="#bd"/><use transform="matrix(0.037777777777777764,0,0,0.037777777777777764,30.411111111111097,0)" xlink:href="#be"/><use transform="matrix(0.037777777777777764,0,0,0.037777777777777764,54.324444444444424,0)" xlink:href="#bb"/></g><path fill="#333" d="M266 14c-103 1-166-60-165-163v-271H15v-80l85-15v-123l126-44v167h129v95H226v259c-6 69 55 85 113 68l18 92c-25 10-56 15-91 15" id="bf"/><path fill="#333" d="M330-430c-78 0-127 63-127 141V0H78v-708h125c1 81-3 167 2 245 38-47 94-71 167-71 121 0 189 79 189 190V0H436v-317c-1-69-32-113-106-113" id="bg"/><g id="i"><use transform="matrix(0.037777777777777764,0,0,0.037777777777777764,0,0)" xlink:href="#bf"/><use transform="matrix(0.037777777777777764,0,0,0.037777777777777764,14.544444444444439,0)" xlink:href="#bg"/><use transform="matrix(0.037777777777777764,0,0,0.037777777777777764,38.49555555555554,0)" xlink:href="#aY"/></g><path fill="#333" d="M39-378c0-175 271-194 382-101l-50 79c-41-25-82-38-123-38-83 0-118 83-42 107 98 31 223 49 223 175C429 33 141 56 23-45l54-78c39 24 75 33 132 40 84 10 127-92 48-118-99-33-218-48-218-177" id="bh"/><g id="j"><use transform="matrix(0.037777777777777764,0,0,0.037777777777777764,0,0)" xlink:href="#be"/><use transform="matrix(0.037777777777777764,0,0,0.037777777777777764,23.913333333333323,0)" xlink:href="#aY"/><use transform="matrix(0.037777777777777764,0,0,0.037777777777777764,45.78666666666665,0)" xlink:href="#aW"/><use transform="matrix(0.037777777777777764,0,0,0.037777777777777764,67.2822222222222,0)" xlink:href="#aZ"/><use transform="matrix(0.037777777777777764,0,0,0.037777777777777764,81.5622222222222,0)" xlink:href="#aY"/><use transform="matrix(0.037777777777777764,0,0,0.037777777777777764,103.43555555555552,0)" xlink:href="#bh"/><use transform="matrix(0.037777777777777764,0,0,0.037777777777777764,120.85111111111107,0)" xlink:href="#bf"/></g><g id="k"><use transform="matrix(0.037777777777777764,0,0,0.037777777777777764,0,0)" xlink:href="#aX"/><use transform="matrix(0.037777777777777764,0,0,0.037777777777777764,19.30444444444444,0)" xlink:href="#aW"/><use transform="matrix(0.037777777777777764,0,0,0.037777777777777764,40.79999999999998,0)" xlink:href="#aZ"/></g><g id="l"><use transform="matrix(0.037777777777777764,0,0,0.037777777777777764,0,0)" xlink:href="#aZ"/><use transform="matrix(0.037777777777777764,0,0,0.037777777777777764,14.279999999999994,0)" xlink:href="#aY"/><use transform="matrix(0.037777777777777764,0,0,0.037777777777777764,35.96444444444443,0)" xlink:href="#bf"/><use transform="matrix(0.037777777777777764,0,0,0.037777777777777764,50.50888888888887,0)" xlink:href="#aW"/><use transform="matrix(0.037777777777777764,0,0,0.037777777777777764,72.00444444444442,0)" xlink:href="#bd"/><use transform="matrix(0.037777777777777764,0,0,0.037777777777777764,82.65777777777772,0)" xlink:href="#aV"/><use transform="matrix(0.037777777777777764,0,0,0.037777777777777764,93.31111111111107,0)" xlink:href="#aY"/><use transform="matrix(0.037777777777777764,0,0,0.037777777777777764,115.18444444444441,0)" xlink:href="#aZ"/></g><path fill="#3a414a" d="M321-708c238 0 378 113 376 353C695-123 558 0 326 0H80v-708h241zm241 353c0-168-80-245-246-246H210v493h103c166-1 249-79 249-247" id="bi"/><path fill="#3a414a" d="M39-378c0-175 271-194 382-101l-50 79c-41-25-82-38-123-38-83 0-118 83-42 107 98 31 223 49 223 175C429 33 141 56 23-45l54-78c39 24 75 33 132 40 84 10 127-92 48-118-99-33-218-48-218-177" id="bj"/><path fill="#3a414a" d="M203-708V0H78v-708h125" id="bk"/><path fill="#3a414a" d="M291 104c-34 93-75 150-187 153-33 0-63-5-89-15l24-93C152 186 175 85 200 4L-2-520h136c43 130 83 263 129 390l114-390h129" id="bl"/><g id="m"><use transform="matrix(0.04222222222222221,0,0,0.04222222222222221,0,0)" xlink:href="#bi"/><use transform="matrix(0.04222222222222221,0,0,0.04222222222222221,31.244444444444436,0)" xlink:href="#aS"/><use transform="matrix(0.04222222222222221,0,0,0.04222222222222221,43.1511111111111,0)" xlink:href="#bj"/><use transform="matrix(0.04222222222222221,0,0,0.04222222222222221,62.61555555555554,0)" xlink:href="#aR"/><use transform="matrix(0.04222222222222221,0,0,0.04222222222222221,89.46888888888886,0)" xlink:href="#bk"/><use transform="matrix(0.04222222222222221,0,0,0.04222222222222221,101.37555555555555,0)" xlink:href="#aK"/><use transform="matrix(0.04222222222222221,0,0,0.04222222222222221,124.34444444444442,0)" xlink:href="#bl"/></g><g id="n"><use transform="matrix(0.04222222222222221,0,0,0.04222222222222221,0,0)" xlink:href="#aM"/><use transform="matrix(0.04222222222222221,0,0,0.04222222222222221,39.60444444444443,0)" xlink:href="#aK"/><use transform="matrix(0.04222222222222221,0,0,0.04222222222222221,63.628888888888866,0)" xlink:href="#aS"/><use transform="matrix(0.04222222222222221,0,0,0.04222222222222221,75.53555555555553,0)" xlink:href="#aO"/></g><g id="o"><use transform="matrix(0.04222222222222221,0,0,0.04222222222222221,0,0)" xlink:href="#aM"/><use transform="matrix(0.04222222222222221,0,0,0.04222222222222221,39.60444444444443,0)" xlink:href="#aN"/><use transform="matrix(0.04222222222222221,0,0,0.04222222222222221,64.05111111111108,0)" xlink:href="#aO"/><use transform="matrix(0.04222222222222221,0,0,0.04222222222222221,90.77777777777776,0)" xlink:href="#aP"/></g><path fill="#333" d="M405 19C170 19 44-121 44-355c0-230 129-369 360-372 102-1 196 37 249 90l-74 84c-40-35-100-62-170-62-157-2-231 105-231 260 0 177 76 265 229 265 49 0 97-10 142-29v-158H404v-100h266v329C590-3 502 19 405 19" id="bm"/><g id="p"><use transform="matrix(0.037777777777777764,0,0,0.037777777777777764,0,0)" xlink:href="#bm"/><use transform="matrix(0.037777777777777764,0,0,0.037777777777777764,28.0311111111111,0)" xlink:href="#aY"/><use transform="matrix(0.037777777777777764,0,0,0.037777777777777764,49.71555555555554,0)" xlink:href="#bf"/></g><g id="q"><use transform="matrix(0.037777777777777764,0,0,0.037777777777777764,0,0)" xlink:href="#aX"/><use transform="matrix(0.037777777777777764,0,0,0.037777777777777764,19.30444444444444,0)" xlink:href="#aW"/><use transform="matrix(0.037777777777777764,0,0,0.037777777777777764,40.79999999999998,0)" xlink:href="#aZ"/></g><path fill="#333" d="M367-534c156 0 224 117 224 273 0 157-81 275-237 275-60 0-110-17-151-50v280H78v-645c0-25-3-65-9-119h120c6 27 5 51 10 62 40-51 96-76 168-76zM324-85c97 0 138-75 138-176 0-99-35-171-124-173-77-2-135 64-135 141v166c37 24 66 41 121 42" id="bn"/><path fill="#333" d="M269 14C141 14 72-75 72-200v-320h126v301c0 78 28 134 105 134 81 0 128-71 128-153v-282h125c4 175-9 357 9 520H445c-6-24-5-47-10-61-37 50-92 75-166 75" id="bo"/><g id="r"><use transform="matrix(0.037777777777777764,0,0,0.037777777777777764,0,0)" xlink:href="#bn"/><use transform="matrix(0.037777777777777764,0,0,0.037777777777777764,24.026666666666657,0)" xlink:href="#bo"/><use transform="matrix(0.037777777777777764,0,0,0.037777777777777764,47.97777777777776,0)" xlink:href="#aZ"/><use transform="matrix(0.037777777777777764,0,0,0.037777777777777764,62.25777777777776,0)" xlink:href="#aX"/><use transform="matrix(0.037777777777777764,0,0,0.037777777777777764,81.5622222222222,0)" xlink:href="#bg"/><use transform="matrix(0.037777777777777764,0,0,0.037777777777777764,105.09777777777775,0)" xlink:href="#aW"/><use transform="matrix(0.037777777777777764,0,0,0.037777777777777764,126.5933333333333,0)" xlink:href="#bh"/><use transform="matrix(0.037777777777777764,0,0,0.037777777777777764,144.00888888888886,0)" xlink:href="#aY"/></g><path fill="#333" d="M329 0H192L-2-520h136l127 393h3l124-393h131" id="bp"/><g id="s"><use transform="matrix(0.037777777777777764,0,0,0.037777777777777764,0,0)" xlink:href="#aW"/><use transform="matrix(0.037777777777777764,0,0,0.037777777777777764,21.495555555555548,0)" xlink:href="#bb"/><use transform="matrix(0.037777777777777764,0,0,0.037777777777777764,45.48444444444443,0)" xlink:href="#bp"/><use transform="matrix(0.037777777777777764,0,0,0.037777777777777764,65.05333333333331,0)" xlink:href="#bd"/><use transform="matrix(0.037777777777777764,0,0,0.037777777777777764,75.70666666666665,0)" xlink:href="#aX"/><use transform="matrix(0.037777777777777764,0,0,0.037777777777777764,94.55777777777776,0)" xlink:href="#aY"/></g><path fill="#333" d="M527-603H211v189h270v101H211v206h333V0H80v-708h447v105" id="bq"/><path fill="#333" d="M566 0H416L282-194 153 0H5l200-272L27-520h144l116 175 114-175h137L363-272" id="br"/><g id="t"><use transform="matrix(0.037777777777777764,0,0,0.037777777777777764,0,0)" xlink:href="#bq"/><use transform="matrix(0.037777777777777764,0,0,0.037777777777777764,21.45777777777777,0)" xlink:href="#br"/><use transform="matrix(0.037777777777777764,0,0,0.037777777777777764,43.06666666666665,0)" xlink:href="#bd"/><use transform="matrix(0.037777777777777764,0,0,0.037777777777777764,53.71999999999998,0)" xlink:href="#bf"/></g><g id="u"><use transform="matrix(0.04222222222222221,0,0,0.04222222222222221,0,0)" xlink:href="#bd"/><use transform="matrix(0.04222222222222221,0,0,0.04222222222222221,11.906666666666663,0)" xlink:href="#be"/><use transform="matrix(0.04222222222222221,0,0,0.04222222222222221,38.633333333333326,0)" xlink:href="#bn"/><use transform="matrix(0.04222222222222221,0,0,0.04222222222222221,65.48666666666665,0)" xlink:href="#bo"/><use transform="matrix(0.04222222222222221,0,0,0.04222222222222221,92.25555555555553,0)" xlink:href="#bf"/></g><use transform="matrix(0.04222222222222221,0,0,0.04222222222222221,0,0)" xlink:href="#aW" id="v"/><path fill="#333" d="M582-154h-87V0H370v-154H19v-97l227-457h138L165-262h204v-182h126v182h87v108" id="bs"/><path fill="#333" d="M279-240H40v-100h239v100" id="bt"/><path fill="#333" d="M257 257C121 257 16 215 16 96 16 41 47-4 108-41c-25-16-43-33-43-70 0-44 33-71 72-82-59-31-88-82-88-153 0-157 169-219 323-174h189v99l-105-17c24 21 38 60 38 105-1 116-95 170-219 170-48 0-90 5-96 40 8 33 46 35 96 37 92 3 160 16 204 41s66 62 66 112c0 141-130 190-288 190zm-94-605c1 63 40 98 108 98 72 0 108-31 108-94-1-64-39-99-108-99-61 0-108 37-108 95zm97 512c85-1 161-15 161-84 0-25-17-43-51-54S276 9 192 8c-37 21-55 48-55 81 0 50 41 75 123 75" id="bu"/><g id="w"><use transform="matrix(0.04222222222222221,0,0,0.04222222222222221,0,0)" xlink:href="#bs"/><use transform="matrix(0.04222222222222221,0,0,0.04222222222222221,25.75555555555555,0)" xlink:href="#bt"/><use transform="matrix(0.04222222222222221,0,0,0.04222222222222221,39.22444444444443,0)" xlink:href="#bb"/><use transform="matrix(0.04222222222222221,0,0,0.04222222222222221,66.03555555555553,0)" xlink:href="#bd"/><use transform="matrix(0.04222222222222221,0,0,0.04222222222222221,77.9422222222222,0)" xlink:href="#bu"/><use transform="matrix(0.04222222222222221,0,0,0.04222222222222221,102.4733333333333,0)" xlink:href="#bd"/><use transform="matrix(0.04222222222222221,0,0,0.04222222222222221,114.37999999999997,0)" xlink:href="#bf"/></g><g id="x"><use transform="matrix(0.04222222222222221,0,0,0.04222222222222221,0,0)" xlink:href="#bn"/><use transform="matrix(0.04222222222222221,0,0,0.04222222222222221,26.853333333333325,0)" xlink:href="#ba"/><use transform="matrix(0.04222222222222221,0,0,0.04222222222222221,53.45333333333332,0)" xlink:href="#bh"/><use transform="matrix(0.04222222222222221,0,0,0.04222222222222221,72.91777777777776,0)" xlink:href="#bf"/><use transform="matrix(0.04222222222222221,0,0,0.04222222222222221,88.53999999999995,0)" xlink:href="#aX"/><use transform="matrix(0.04222222222222221,0,0,0.04222222222222221,109.60888888888886,0)" xlink:href="#ba"/><use transform="matrix(0.04222222222222221,0,0,0.04222222222222221,136.20888888888885,0)" xlink:href="#bb"/><use transform="matrix(0.04222222222222221,0,0,0.04222222222222221,163.01999999999995,0)" xlink:href="#aY"/></g><path fill="#3a414a" d="M527-603H211v189h270v101H211v206h333V0H80v-708h447v105" id="bv"/><path fill="#3a414a" d="M44-257c2-159 83-277 241-277 59 0 108 17 147 52v-226h125c4 237-9 482 8 708H449c-6-26-5-51-10-65-38 51-88 79-175 79C113 16 42-104 44-257zM298-85c79 1 134-62 134-142v-152c-34-36-77-54-128-54-90 1-130 79-130 176S212-88 298-85" id="bw"/><g id="y"><use transform="matrix(0.04222222222222221,0,0,0.04222222222222221,0,0)" xlink:href="#bv"/><use transform="matrix(0.04222222222222221,0,0,0.04222222222222221,23.982222222222216,0)" xlink:href="#aO"/><use transform="matrix(0.04222222222222221,0,0,0.04222222222222221,50.708888888888886,0)" xlink:href="#bw"/></g><path fill="#3a414a" d="M44-355c0-231 126-370 357-373 102-1 196 37 249 90l-74 84c-41-35-99-61-170-61-157-2-225 105-226 260 0 151 70 260 223 258 77-1 135-32 177-71l79 86C603-26 509 20 399 19 169 16 44-126 44-355" id="bx"/><path fill="#3a414a" d="M44-261c0-170 96-273 266-273 65 0 123 19 174 56l-47 87c-40-26-82-39-126-39-98-1-141 69-141 169 0 97 44 171 139 170 41 0 84-13 129-40l45 89C436-9 374 14 299 14 127 14 44-98 44-261" id="by"/><g id="z"><use transform="matrix(0.04222222222222221,0,0,0.04222222222222221,0,0)" xlink:href="#bx"/><use transform="matrix(0.04222222222222221,0,0,0.04222222222222221,28.626666666666658,0)" xlink:href="#aK"/><use transform="matrix(0.04222222222222221,0,0,0.04222222222222221,52.65111111111109,0)" xlink:href="#bk"/><use transform="matrix(0.04222222222222221,0,0,0.04222222222222221,64.55777777777776,0)" xlink:href="#by"/><use transform="matrix(0.04222222222222221,0,0,0.04222222222222221,85.75333333333332,0)" xlink:href="#aP"/><use transform="matrix(0.04222222222222221,0,0,0.04222222222222221,112.52222222222218,0)" xlink:href="#bk"/><use transform="matrix(0.04222222222222221,0,0,0.04222222222222221,124.42888888888888,0)" xlink:href="#aK"/><use transform="matrix(0.04222222222222221,0,0,0.04222222222222221,148.24222222222218,0)" xlink:href="#aJ"/><use transform="matrix(0.04222222222222221,0,0,0.04222222222222221,163.86444444444442,0)" xlink:href="#aN"/></g><path fill="#3a414a" d="M335-708c157 0 270 77 267 237-3 159-110 238-267 242H211V0H80v-708h255zm134 238c0-136-122-140-259-133v268h113c83 0 146-47 146-135" id="bz"/><g id="A"><use transform="matrix(0.04222222222222221,0,0,0.04222222222222221,0,0)" xlink:href="#bz"/><use transform="matrix(0.04222222222222221,0,0,0.04222222222222221,25.20666666666666,0)" xlink:href="#aT"/><use transform="matrix(0.04222222222222221,0,0,0.04222222222222221,51.80666666666665,0)" xlink:href="#bj"/><use transform="matrix(0.04222222222222221,0,0,0.04222222222222221,71.27111111111108,0)" xlink:href="#aJ"/><use transform="matrix(0.04222222222222221,0,0,0.04222222222222221,86.89333333333329,0)" xlink:href="#by"/><use transform="matrix(0.04222222222222221,0,0,0.04222222222222221,107.9622222222222,0)" xlink:href="#aT"/><use transform="matrix(0.04222222222222221,0,0,0.04222222222222221,134.56222222222218,0)" xlink:href="#bw"/><use transform="matrix(0.04222222222222221,0,0,0.04222222222222221,161.37333333333328,0)" xlink:href="#aN"/></g><path fill="#3a414a" d="M100-515c-8-137 59-207 193-207 37 0 72 6 104 17l-30 89c-69-20-150-1-142 77v24h123v95H225V0H100v-420H15v-80" id="bA"/><g id="B"><use transform="matrix(0.04222222222222221,0,0,0.04222222222222221,0,0)" xlink:href="#bi"/><use transform="matrix(0.04222222222222221,0,0,0.04222222222222221,31.244444444444436,0)" xlink:href="#aS"/><use transform="matrix(0.04222222222222221,0,0,0.04222222222222221,43.1511111111111,0)" xlink:href="#bA"/><use transform="matrix(0.04222222222222221,0,0,0.04222222222222221,58.351111111111095,0)" xlink:href="#bA"/><use transform="matrix(0.04222222222222221,0,0,0.04222222222222221,73.42444444444442,0)" xlink:href="#aN"/><use transform="matrix(0.04222222222222221,0,0,0.04222222222222221,97.87111111111108,0)" xlink:href="#aL"/><use transform="matrix(0.04222222222222221,0,0,0.04222222222222221,113.83111111111107,0)" xlink:href="#aN"/><use transform="matrix(0.04222222222222221,0,0,0.04222222222222221,138.27777777777774,0)" xlink:href="#aO"/><use transform="matrix(0.04222222222222221,0,0,0.04222222222222221,165.0044444444444,0)" xlink:href="#by"/><use transform="matrix(0.04222222222222221,0,0,0.04222222222222221,186.07333333333327,0)" xlink:href="#aN"/><use transform="matrix(0.04222222222222221,0,0,0.04222222222222221,210.51999999999992,0)" xlink:href="#bj"/></g><g id="C"><use transform="matrix(0.04222222222222221,0,0,0.04222222222222221,0,0)" xlink:href="#bx"/><use transform="matrix(0.04222222222222221,0,0,0.04222222222222221,28.626666666666658,0)" xlink:href="#aL"/><use transform="matrix(0.04222222222222221,0,0,0.04222222222222221,44.58666666666665,0)" xlink:href="#aN"/><use transform="matrix(0.04222222222222221,0,0,0.04222222222222221,69.0333333333333,0)" xlink:href="#aK"/><use transform="matrix(0.04222222222222221,0,0,0.04222222222222221,92.84666666666664,0)" xlink:href="#aJ"/><use transform="matrix(0.04222222222222221,0,0,0.04222222222222221,108.46888888888884,0)" xlink:href="#aN"/></g><g id="D"><use transform="matrix(0.04222222222222221,0,0,0.04222222222222221,0,0)" xlink:href="#aK"/><use transform="matrix(0.04222222222222221,0,0,0.04222222222222221,24.024444444444438,0)" xlink:href="#aO"/><use transform="matrix(0.04222222222222221,0,0,0.04222222222222221,50.75111111111109,0)" xlink:href="#bw"/></g><g id="E"><use transform="matrix(0.04222222222222221,0,0,0.04222222222222221,0,0)" xlink:href="#bi"/><use transform="matrix(0.04222222222222221,0,0,0.04222222222222221,31.244444444444436,0)" xlink:href="#aS"/><use transform="matrix(0.04222222222222221,0,0,0.04222222222222221,43.1511111111111,0)" xlink:href="#bj"/><use transform="matrix(0.04222222222222221,0,0,0.04222222222222221,62.61555555555554,0)" xlink:href="#aR"/><use transform="matrix(0.04222222222222221,0,0,0.04222222222222221,89.46888888888886,0)" xlink:href="#bk"/><use transform="matrix(0.04222222222222221,0,0,0.04222222222222221,101.37555555555555,0)" xlink:href="#aK"/><use transform="matrix(0.04222222222222221,0,0,0.04222222222222221,124.34444444444442,0)" xlink:href="#bl"/></g><g id="F"><use transform="matrix(0.04222222222222221,0,0,0.04222222222222221,0,0)" xlink:href="#bx"/><use transform="matrix(0.04222222222222221,0,0,0.04222222222222221,28.626666666666658,0)" xlink:href="#aK"/><use transform="matrix(0.04222222222222221,0,0,0.04222222222222221,52.65111111111109,0)" xlink:href="#aL"/></g><g id="G"><use transform="matrix(0.04222222222222221,0,0,0.04222222222222221,0,0)" xlink:href="#aQ"/><use transform="matrix(0.04222222222222221,0,0,0.04222222222222221,34.28444444444443,0)" xlink:href="#aL"/><use transform="matrix(0.04222222222222221,0,0,0.04222222222222221,50.24444444444443,0)" xlink:href="#bw"/><use transform="matrix(0.04222222222222221,0,0,0.04222222222222221,77.05555555555553,0)" xlink:href="#aN"/><use transform="matrix(0.04222222222222221,0,0,0.04222222222222221,101.50222222222219,0)" xlink:href="#aL"/></g><path fill="#3a414a" d="M259-99h83V0H48v-99h83v-513H48v-96h294v96h-83v513" id="bB"/><path fill="#3a414a" d="M323-431c-76 0-120 65-120 142V0H78c-4-180 9-350-9-520h120c5 21 4 44 10 59 33-42 89-73 163-73 79 0 131 31 166 86 39-57 97-86 173-86 125 1 193 81 193 202V0H769v-314c-1-70-28-117-100-117-78 0-121 72-120 149V0H423v-324c-1-62-33-107-100-107" id="bC"/><g id="H"><use transform="matrix(0.04222222222222221,0,0,0.04222222222222221,0,0)" xlink:href="#bB"/><use transform="matrix(0.04222222222222221,0,0,0.04222222222222221,16.46666666666666,0)" xlink:href="#aO"/><use transform="matrix(0.04222222222222221,0,0,0.04222222222222221,42.982222222222205,0)" xlink:href="#bA"/><use transform="matrix(0.04222222222222221,0,0,0.04222222222222221,58.055555555555536,0)" xlink:href="#aT"/><use transform="matrix(0.04222222222222221,0,0,0.04222222222222221,84.65555555555552,0)" xlink:href="#aL"/><use transform="matrix(0.04222222222222221,0,0,0.04222222222222221,101.20666666666662,0)" xlink:href="#bC"/><use transform="matrix(0.04222222222222221,0,0,0.04222222222222221,141.52888888888884,0)" xlink:href="#aK"/><use transform="matrix(0.04222222222222221,0,0,0.04222222222222221,165.34222222222218,0)" xlink:href="#aJ"/><use transform="matrix(0.04222222222222221,0,0,0.04222222222222221,181.59777777777774,0)" xlink:href="#aS"/><use transform="matrix(0.04222222222222221,0,0,0.04222222222222221,193.50444444444437,0)" xlink:href="#aT"/><use transform="matrix(0.04222222222222221,0,0,0.04222222222222221,220.10444444444437,0)" xlink:href="#aO"/></g><path fill="#3a414a" d="M405 19C170 19 44-121 44-355c0-230 129-369 360-372 102-1 196 37 249 90l-74 84c-40-35-100-62-170-62-157-2-231 105-231 260 0 177 76 265 229 265 49 0 97-10 142-29v-158H404v-100h266v329C590-3 502 19 405 19" id="bD"/><g id="I"><use transform="matrix(0.04222222222222221,0,0,0.04222222222222221,0,0)" xlink:href="#bD"/><use transform="matrix(0.04222222222222221,0,0,0.04222222222222221,31.32888888888888,0)" xlink:href="#aN"/><use transform="matrix(0.04222222222222221,0,0,0.04222222222222221,55.77555555555554,0)" xlink:href="#aO"/><use transform="matrix(0.04222222222222221,0,0,0.04222222222222221,82.5022222222222,0)" xlink:href="#aN"/><use transform="matrix(0.04222222222222221,0,0,0.04222222222222221,106.94888888888886,0)" xlink:href="#aL"/><use transform="matrix(0.04222222222222221,0,0,0.04222222222222221,122.86666666666662,0)" xlink:href="#aK"/><use transform="matrix(0.04222222222222221,0,0,0.04222222222222221,146.67999999999995,0)" xlink:href="#aJ"/><use transform="matrix(0.04222222222222221,0,0,0.04222222222222221,162.30222222222218,0)" xlink:href="#aN"/></g><path fill="#3a414a" d="M328-708c153-1 267 84 267 237 0 100-48 168-143 205L621 0H471L331-240H211V0H80v-708h248zm132 237c0-87-59-132-141-132H210v263h111c82 0 139-45 139-131" id="bE"/><g id="J"><use transform="matrix(0.04222222222222221,0,0,0.04222222222222221,0,0)" xlink:href="#bE"/><use transform="matrix(0.04222222222222221,0,0,0.04222222222222221,27.10666666666666,0)" xlink:href="#aK"/><use transform="matrix(0.04222222222222221,0,0,0.04222222222222221,51.131111111111096,0)" xlink:href="#aO"/><use transform="matrix(0.04222222222222221,0,0,0.04222222222222221,77.85777777777776,0)" xlink:href="#bw"/><use transform="matrix(0.04222222222222221,0,0,0.04222222222222221,104.66888888888886,0)" xlink:href="#aT"/><use transform="matrix(0.04222222222222221,0,0,0.04222222222222221,131.26888888888885,0)" xlink:href="#bC"/></g><g id="K"><use transform="matrix(0.04222222222222221,0,0,0.04222222222222221,0,0)" xlink:href="#bx"/><use transform="matrix(0.04222222222222221,0,0,0.04222222222222221,28.626666666666658,0)" xlink:href="#aK"/><use transform="matrix(0.04222222222222221,0,0,0.04222222222222221,52.65111111111109,0)" xlink:href="#aL"/></g><g id="L"><use transform="matrix(0.04222222222222221,0,0,0.04222222222222221,0,0)" xlink:href="#bE"/><use transform="matrix(0.04222222222222221,0,0,0.04222222222222221,26.72666666666666,0)" xlink:href="#aN"/><use transform="matrix(0.04222222222222221,0,0,0.04222222222222221,50.96222222222221,0)" xlink:href="#aJ"/><use transform="matrix(0.04222222222222221,0,0,0.04222222222222221,67.21777777777775,0)" xlink:href="#aK"/><use transform="matrix(0.04222222222222221,0,0,0.04222222222222221,91.2422222222222,0)" xlink:href="#aS"/><use transform="matrix(0.04222222222222221,0,0,0.04222222222222221,103.14888888888886,0)" xlink:href="#bk"/><use transform="matrix(0.04222222222222221,0,0,0.04222222222222221,115.05555555555551,0)" xlink:href="#aN"/><use transform="matrix(0.04222222222222221,0,0,0.04222222222222221,139.5022222222222,0)" xlink:href="#aL"/></g><path fill="#3a414a" d="M561-598H348V0H217v-598H4v-110h557v110" id="bF"/><g id="M"><use transform="matrix(0.04222222222222221,0,0,0.04222222222222221,0,0)" xlink:href="#bF"/><use transform="matrix(0.04222222222222221,0,0,0.04222222222222221,23.855555555555547,0)" xlink:href="#aN"/><use transform="matrix(0.04222222222222221,0,0,0.04222222222222221,48.302222222222206,0)" xlink:href="#bj"/><use transform="matrix(0.04222222222222221,0,0,0.04222222222222221,67.76666666666665,0)" xlink:href="#aJ"/></g><g id="N"><use transform="matrix(0.04222222222222221,0,0,0.04222222222222221,0,0)" xlink:href="#bi"/><use transform="matrix(0.04222222222222221,0,0,0.04222222222222221,30.77999999999999,0)" xlink:href="#aK"/><use transform="matrix(0.04222222222222221,0,0,0.04222222222222221,54.59333333333332,0)" xlink:href="#aJ"/><use transform="matrix(0.04222222222222221,0,0,0.04222222222222221,70.84888888888887,0)" xlink:href="#aK"/></g><path fill="#3a414a" d="M366-534c151 0 227 122 225 273-2 163-86 275-250 275-55 0-106-18-152-54l-8 40H78v-708h125v245h3c35-47 89-71 160-71zM324-85c97 0 138-75 138-176 0-98-35-170-123-173-77-2-136 64-136 141v166c37 24 66 41 121 42" id="bG"/><path fill="#3a414a" d="M279-240H40v-100h239v100" id="bH"/><g id="O"><use transform="matrix(0.04222222222222221,0,0,0.04222222222222221,0,0)" xlink:href="#aI"/><use transform="matrix(0.04222222222222221,0,0,0.04222222222222221,24.27777777777777,0)" xlink:href="#aP"/><use transform="matrix(0.04222222222222221,0,0,0.04222222222222221,51.04666666666665,0)" xlink:href="#bG"/><use transform="matrix(0.04222222222222221,0,0,0.04222222222222221,77.89999999999998,0)" xlink:href="#bH"/><use transform="matrix(0.04222222222222221,0,0,0.04222222222222221,91.36888888888886,0)" xlink:href="#aM"/><use transform="matrix(0.04222222222222221,0,0,0.04222222222222221,130.9733333333333,0)" xlink:href="#aN"/><use transform="matrix(0.04222222222222221,0,0,0.04222222222222221,155.41999999999996,0)" xlink:href="#aO"/><use transform="matrix(0.04222222222222221,0,0,0.04222222222222221,182.14666666666662,0)" xlink:href="#aP"/></g><g id="P"><use transform="matrix(0.04222222222222221,0,0,0.04222222222222221,0,0)" xlink:href="#aI"/><use transform="matrix(0.04222222222222221,0,0,0.04222222222222221,24.27777777777777,0)" xlink:href="#aP"/><use transform="matrix(0.04222222222222221,0,0,0.04222222222222221,51.04666666666665,0)" xlink:href="#bG"/><use transform="matrix(0.04222222222222221,0,0,0.04222222222222221,77.89999999999998,0)" xlink:href="#bH"/><use transform="matrix(0.04222222222222221,0,0,0.04222222222222221,91.36888888888886,0)" xlink:href="#aM"/><use transform="matrix(0.04222222222222221,0,0,0.04222222222222221,130.9733333333333,0)" xlink:href="#aN"/><use transform="matrix(0.04222222222222221,0,0,0.04222222222222221,155.41999999999996,0)" xlink:href="#aO"/><use transform="matrix(0.04222222222222221,0,0,0.04222222222222221,182.14666666666662,0)" xlink:href="#aP"/></g><g id="Q"><use transform="matrix(0.037777777777777764,0,0,0.037777777777777764,0,0)" xlink:href="#aW"/><use transform="matrix(0.037777777777777764,0,0,0.037777777777777764,21.495555555555548,0)" xlink:href="#aV"/><use transform="matrix(0.037777777777777764,0,0,0.037777777777777764,32.14888888888888,0)" xlink:href="#aV"/></g><g id="R"><use transform="matrix(0.037777777777777764,0,0,0.037777777777777764,0,0)" xlink:href="#aX"/><use transform="matrix(0.037777777777777764,0,0,0.037777777777777764,19.30444444444444,0)" xlink:href="#aW"/><use transform="matrix(0.037777777777777764,0,0,0.037777777777777764,40.79999999999998,0)" xlink:href="#aZ"/><use transform="matrix(0.037777777777777764,0,0,0.037777777777777764,55.60888888888887,0)" xlink:href="#bh"/></g><g id="S"><use transform="matrix(0.037777777777777764,0,0,0.037777777777777764,0,0)" xlink:href="#bd"/><use transform="matrix(0.037777777777777764,0,0,0.037777777777777764,10.653333333333329,0)" xlink:href="#be"/></g><path fill="#333" d="M247-226l-44 41V0H78v-708h125v382l208-194h148L333-307 576 0H422" id="bI"/><g id="T"><use transform="matrix(0.037777777777777764,0,0,0.037777777777777764,0,0)" xlink:href="#bh"/><use transform="matrix(0.037777777777777764,0,0,0.037777777777777764,17.41555555555555,0)" xlink:href="#bf"/><use transform="matrix(0.037777777777777764,0,0,0.037777777777777764,31.393333333333324,0)" xlink:href="#ba"/><use transform="matrix(0.037777777777777764,0,0,0.037777777777777764,55.193333333333314,0)" xlink:href="#aX"/><use transform="matrix(0.037777777777777764,0,0,0.037777777777777764,74.49777777777776,0)" xlink:href="#bI"/></g><path fill="#333" d="M328-708c153-1 267 84 267 237 0 100-48 168-143 205L621 0H471L331-240H211V0H80v-708h248zm132 237c0-87-59-132-141-132H210v263h111c82 0 139-45 139-131" id="bJ"/><path fill="#333" d="M323-431c-76 0-120 65-120 142V0H78c-4-180 9-350-9-520h120c5 21 4 44 10 59 33-42 89-73 163-73 79 0 131 31 166 86 39-57 97-86 173-86 125 1 193 81 193 202V0H769v-314c-1-70-28-117-100-117-78 0-121 72-120 149V0H423v-324c-1-62-33-107-100-107" id="bK"/><g id="U"><use transform="matrix(0.037777777777777764,0,0,0.037777777777777764,0,0)" xlink:href="#bJ"/><use transform="matrix(0.037777777777777764,0,0,0.037777777777777764,23.913333333333323,0)" xlink:href="#aY"/><use transform="matrix(0.037777777777777764,0,0,0.037777777777777764,45.78666666666665,0)" xlink:href="#aX"/><use transform="matrix(0.037777777777777764,0,0,0.037777777777777764,64.63777777777776,0)" xlink:href="#ba"/><use transform="matrix(0.037777777777777764,0,0,0.037777777777777764,88.43777777777774,0)" xlink:href="#bK"/><use transform="matrix(0.037777777777777764,0,0,0.037777777777777764,124.93111111111105,0)" xlink:href="#bK"/><use transform="matrix(0.037777777777777764,0,0,0.037777777777777764,161.42444444444436,0)" xlink:href="#aY"/><use transform="matrix(0.037777777777777764,0,0,0.037777777777777764,183.29777777777772,0)" xlink:href="#be"/><use transform="matrix(0.037777777777777764,0,0,0.037777777777777764,207.21111111111102,0)" xlink:href="#bb"/></g><g id="V"><use transform="matrix(0.037777777777777764,0,0,0.037777777777777764,0,0)" xlink:href="#aX"/><use transform="matrix(0.037777777777777764,0,0,0.037777777777777764,19.30444444444444,0)" xlink:href="#aW"/><use transform="matrix(0.037777777777777764,0,0,0.037777777777777764,40.79999999999998,0)" xlink:href="#aZ"/></g><g id="W"><use transform="matrix(0.037777777777777764,0,0,0.037777777777777764,0,0)" xlink:href="#aX"/><use transform="matrix(0.037777777777777764,0,0,0.037777777777777764,19.30444444444444,0)" xlink:href="#aW"/><use transform="matrix(0.037777777777777764,0,0,0.037777777777777764,40.79999999999998,0)" xlink:href="#aZ"/><use transform="matrix(0.037777777777777764,0,0,0.037777777777777764,55.60888888888887,0)" xlink:href="#bh"/></g><g id="X"><use transform="matrix(0.037777777777777764,0,0,0.037777777777777764,0,0)" xlink:href="#bh"/><use transform="matrix(0.037777777777777764,0,0,0.037777777777777764,17.41555555555555,0)" xlink:href="#bf"/><use transform="matrix(0.037777777777777764,0,0,0.037777777777777764,31.393333333333324,0)" xlink:href="#ba"/><use transform="matrix(0.037777777777777764,0,0,0.037777777777777764,55.193333333333314,0)" xlink:href="#aX"/><use transform="matrix(0.037777777777777764,0,0,0.037777777777777764,74.49777777777776,0)" xlink:href="#bI"/></g><path fill="#333" d="M366-534c151 0 227 122 225 273-2 163-86 275-250 275-55 0-106-18-152-54l-8 40H78v-708h125v245h3c35-47 89-71 160-71zM324-85c97 0 138-75 138-176 0-98-35-170-123-173-77-2-136 64-136 141v166c37 24 66 41 121 42" id="bL"/><path fill="#333" d="M291 104c-34 93-75 150-187 153-33 0-63-5-89-15l24-93C152 186 175 85 200 4L-2-520h136c43 130 83 263 129 390l114-390h129" id="bM"/><g id="Y"><use transform="matrix(0.037777777777777764,0,0,0.037777777777777764,0,0)" xlink:href="#bL"/><use transform="matrix(0.037777777777777764,0,0,0.037777777777777764,23.875555555555547,0)" xlink:href="#bM"/></g><g id="Z"><use transform="matrix(0.037777777777777764,0,0,0.037777777777777764,0,0)" xlink:href="#aX"/><use transform="matrix(0.037777777777777764,0,0,0.037777777777777764,19.30444444444444,0)" xlink:href="#aW"/><use transform="matrix(0.037777777777777764,0,0,0.037777777777777764,40.79999999999998,0)" xlink:href="#aZ"/></g><g id="aa"><use transform="matrix(0.037777777777777764,0,0,0.037777777777777764,0,0)" xlink:href="#bf"/><use transform="matrix(0.037777777777777764,0,0,0.037777777777777764,14.544444444444439,0)" xlink:href="#bM"/><use transform="matrix(0.037777777777777764,0,0,0.037777777777777764,33.62222222222221,0)" xlink:href="#bn"/><use transform="matrix(0.037777777777777764,0,0,0.037777777777777764,57.64888888888887,0)" xlink:href="#aY"/><use transform="matrix(0.037777777777777764,0,0,0.037777777777777764,79.5222222222222,0)" xlink:href="#bh"/></g><g id="ab"><use transform="matrix(0.037777777777777764,0,0,0.037777777777777764,0,0)" xlink:href="#bn"/><use transform="matrix(0.037777777777777764,0,0,0.037777777777777764,24.026666666666657,0)" xlink:href="#aZ"/><use transform="matrix(0.037777777777777764,0,0,0.037777777777777764,38.30666666666665,0)" xlink:href="#ba"/><use transform="matrix(0.037777777777777764,0,0,0.037777777777777764,62.10666666666665,0)" xlink:href="#bL"/><use transform="matrix(0.037777777777777764,0,0,0.037777777777777764,86.1333333333333,0)" xlink:href="#aW"/><use transform="matrix(0.037777777777777764,0,0,0.037777777777777764,107.43999999999996,0)" xlink:href="#bf"/><use transform="matrix(0.037777777777777764,0,0,0.037777777777777764,121.9844444444444,0)" xlink:href="#bd"/><use transform="matrix(0.037777777777777764,0,0,0.037777777777777764,132.63777777777773,0)" xlink:href="#ba"/><use transform="matrix(0.037777777777777764,0,0,0.037777777777777764,156.4377777777777,0)" xlink:href="#be"/><use transform="matrix(0.037777777777777764,0,0,0.037777777777777764,179.93555555555548,0)" xlink:href="#aW"/><use transform="matrix(0.037777777777777764,0,0,0.037777777777777764,201.43111111111105,0)" xlink:href="#aZ"/><use transform="matrix(0.037777777777777764,0,0,0.037777777777777764,216.99555555555546,0)" xlink:href="#bM"/></g><g id="ac"><use transform="matrix(0.037777777777777764,0,0,0.037777777777777764,0,0)" xlink:href="#aV"/><use transform="matrix(0.037777777777777764,0,0,0.037777777777777764,10.653333333333329,0)" xlink:href="#bd"/><use transform="matrix(0.037777777777777764,0,0,0.037777777777777764,21.306666666666658,0)" xlink:href="#aX"/><use transform="matrix(0.037777777777777764,0,0,0.037777777777777764,40.15777777777777,0)" xlink:href="#aY"/><use transform="matrix(0.037777777777777764,0,0,0.037777777777777764,62.03111111111109,0)" xlink:href="#be"/><use transform="matrix(0.037777777777777764,0,0,0.037777777777777764,85.94444444444441,0)" xlink:href="#aX"/><use transform="matrix(0.037777777777777764,0,0,0.037777777777777764,104.79555555555552,0)" xlink:href="#aY"/></g><g id="ad"><use transform="matrix(0.037777777777777764,0,0,0.037777777777777764,0,0)" xlink:href="#bn"/><use transform="matrix(0.037777777777777764,0,0,0.037777777777777764,24.026666666666657,0)" xlink:href="#aY"/><use transform="matrix(0.037777777777777764,0,0,0.037777777777777764,45.89999999999998,0)" xlink:href="#aZ"/><use transform="matrix(0.037777777777777764,0,0,0.037777777777777764,60.708888888888865,0)" xlink:href="#bK"/><use transform="matrix(0.037777777777777764,0,0,0.037777777777777764,97.20222222222219,0)" xlink:href="#bd"/><use transform="matrix(0.037777777777777764,0,0,0.037777777777777764,107.85555555555554,0)" xlink:href="#bf"/><use transform="matrix(0.037777777777777764,0,0,0.037777777777777764,122.39999999999996,0)" xlink:href="#bf"/><use transform="matrix(0.037777777777777764,0,0,0.037777777777777764,136.37777777777774,0)" xlink:href="#aY"/><use transform="matrix(0.037777777777777764,0,0,0.037777777777777764,158.2511111111111,0)" xlink:href="#bb"/></g><g id="ae"><use transform="matrix(0.037777777777777764,0,0,0.037777777777777764,0,0)" xlink:href="#aX"/><use transform="matrix(0.037777777777777764,0,0,0.037777777777777764,19.30444444444444,0)" xlink:href="#aW"/><use transform="matrix(0.037777777777777764,0,0,0.037777777777777764,40.79999999999998,0)" xlink:href="#aZ"/><use transform="matrix(0.037777777777777764,0,0,0.037777777777777764,55.60888888888887,0)" xlink:href="#bh"/></g><path fill="#333" d="M80-708c215 6 493-49 493 177 0 87-55 137-121 159 89 12 151 71 151 171C603-58 495-1 352 0H80v-708zm363 193c0-112-127-93-236-94v196c113 2 236 15 236-102zm26 302c0-126-140-107-262-107v219c125 1 262 15 262-112" id="bN"/><g id="af"><use transform="matrix(0.037777777777777764,0,0,0.037777777777777764,0,0)" xlink:href="#bN"/><use transform="matrix(0.037777777777777764,0,0,0.037777777777777764,24.291111111111103,0)" xlink:href="#aW"/><use transform="matrix(0.037777777777777764,0,0,0.037777777777777764,45.78666666666665,0)" xlink:href="#aX"/><use transform="matrix(0.037777777777777764,0,0,0.037777777777777764,65.09111111111109,0)" xlink:href="#bI"/></g><g id="ag"><use transform="matrix(0.037777777777777764,0,0,0.037777777777777764,0,0)" xlink:href="#bf"/><use transform="matrix(0.037777777777777764,0,0,0.037777777777777764,13.977777777777773,0)" xlink:href="#ba"/></g><g id="ah"><use transform="matrix(0.037777777777777764,0,0,0.037777777777777764,0,0)" xlink:href="#bK"/><use transform="matrix(0.037777777777777764,0,0,0.037777777777777764,36.07777777777776,0)" xlink:href="#aW"/><use transform="matrix(0.037777777777777764,0,0,0.037777777777777764,57.57333333333331,0)" xlink:href="#bd"/><use transform="matrix(0.037777777777777764,0,0,0.037777777777777764,68.22666666666663,0)" xlink:href="#be"/></g><g id="ai"><use transform="matrix(0.037777777777777764,0,0,0.037777777777777764,0,0)" xlink:href="#bK"/><use transform="matrix(0.037777777777777764,0,0,0.037777777777777764,36.49333333333332,0)" xlink:href="#aY"/><use transform="matrix(0.037777777777777764,0,0,0.037777777777777764,58.366666666666646,0)" xlink:href="#be"/><use transform="matrix(0.037777777777777764,0,0,0.037777777777777764,82.27999999999997,0)" xlink:href="#bo"/></g><g id="aj"><use transform="matrix(0.04222222222222221,0,0,0.04222222222222221,0,0)" xlink:href="#bi"/><use transform="matrix(0.04222222222222221,0,0,0.04222222222222221,31.244444444444436,0)" xlink:href="#aS"/><use transform="matrix(0.04222222222222221,0,0,0.04222222222222221,43.1511111111111,0)" xlink:href="#bj"/><use transform="matrix(0.04222222222222221,0,0,0.04222222222222221,62.61555555555554,0)" xlink:href="#aR"/><use transform="matrix(0.04222222222222221,0,0,0.04222222222222221,89.46888888888886,0)" xlink:href="#bk"/><use transform="matrix(0.04222222222222221,0,0,0.04222222222222221,101.37555555555555,0)" xlink:href="#aK"/><use transform="matrix(0.04222222222222221,0,0,0.04222222222222221,124.34444444444442,0)" xlink:href="#bl"/></g><path fill="#3a414a" d="M479-153H191L134 0H-3l272-708h135L675 0H533zM226-253h219L336-574" id="bO"/><g id="ak"><use transform="matrix(0.04222222222222221,0,0,0.04222222222222221,0,0)" xlink:href="#bO"/><use transform="matrix(0.04222222222222221,0,0,0.04222222222222221,28.415555555555546,0)" xlink:href="#bk"/><use transform="matrix(0.04222222222222221,0,0,0.04222222222222221,40.32222222222221,0)" xlink:href="#bk"/></g><path fill="#3a414a" d="M247-226l-44 41V0H78v-708h125v382l208-194h148L333-307 576 0H422" id="bP"/><g id="al"><use transform="matrix(0.04222222222222221,0,0,0.04222222222222221,0,0)" xlink:href="#aI"/><use transform="matrix(0.04222222222222221,0,0,0.04222222222222221,24.27777777777777,0)" xlink:href="#aJ"/><use transform="matrix(0.04222222222222221,0,0,0.04222222222222221,39.89999999999999,0)" xlink:href="#aT"/><use transform="matrix(0.04222222222222221,0,0,0.04222222222222221,66.49999999999999,0)" xlink:href="#by"/><use transform="matrix(0.04222222222222221,0,0,0.04222222222222221,88.07555555555555,0)" xlink:href="#bP"/></g><g id="am"><use transform="matrix(0.04222222222222221,0,0,0.04222222222222221,0,0)" xlink:href="#bB"/><use transform="matrix(0.04222222222222221,0,0,0.04222222222222221,16.46666666666666,0)" xlink:href="#aO"/><use transform="matrix(0.04222222222222221,0,0,0.04222222222222221,42.982222222222205,0)" xlink:href="#bA"/><use transform="matrix(0.04222222222222221,0,0,0.04222222222222221,58.055555555555536,0)" xlink:href="#aT"/><use transform="matrix(0.04222222222222221,0,0,0.04222222222222221,84.65555555555552,0)" xlink:href="#aL"/><use transform="matrix(0.04222222222222221,0,0,0.04222222222222221,101.20666666666662,0)" xlink:href="#bC"/><use transform="matrix(0.04222222222222221,0,0,0.04222222222222221,141.52888888888884,0)" xlink:href="#aK"/><use transform="matrix(0.04222222222222221,0,0,0.04222222222222221,165.34222222222218,0)" xlink:href="#aJ"/><use transform="matrix(0.04222222222222221,0,0,0.04222222222222221,181.59777777777774,0)" xlink:href="#aS"/><use transform="matrix(0.04222222222222221,0,0,0.04222222222222221,193.50444444444437,0)" xlink:href="#aT"/><use transform="matrix(0.04222222222222221,0,0,0.04222222222222221,220.10444444444437,0)" xlink:href="#aO"/></g><g id="an"><use transform="matrix(0.04222222222222221,0,0,0.04222222222222221,0,0)" xlink:href="#bx"/><use transform="matrix(0.04222222222222221,0,0,0.04222222222222221,28.626666666666658,0)" xlink:href="#aK"/><use transform="matrix(0.04222222222222221,0,0,0.04222222222222221,52.65111111111109,0)" xlink:href="#aL"/></g><g id="ao"><use transform="matrix(0.04222222222222221,0,0,0.04222222222222221,0,0)" xlink:href="#bE"/><use transform="matrix(0.04222222222222221,0,0,0.04222222222222221,26.72666666666666,0)" xlink:href="#aN"/><use transform="matrix(0.04222222222222221,0,0,0.04222222222222221,50.96222222222221,0)" xlink:href="#aJ"/><use transform="matrix(0.04222222222222221,0,0,0.04222222222222221,67.21777777777775,0)" xlink:href="#aK"/><use transform="matrix(0.04222222222222221,0,0,0.04222222222222221,91.2422222222222,0)" xlink:href="#aS"/><use transform="matrix(0.04222222222222221,0,0,0.04222222222222221,103.14888888888886,0)" xlink:href="#bk"/><use transform="matrix(0.04222222222222221,0,0,0.04222222222222221,115.05555555555551,0)" xlink:href="#aN"/><use transform="matrix(0.04222222222222221,0,0,0.04222222222222221,139.5022222222222,0)" xlink:href="#aL"/></g><g id="ap"><use transform="matrix(0.04222222222222221,0,0,0.04222222222222221,0,0)" xlink:href="#bE"/><use transform="matrix(0.04222222222222221,0,0,0.04222222222222221,27.10666666666666,0)" xlink:href="#aK"/><use transform="matrix(0.04222222222222221,0,0,0.04222222222222221,51.131111111111096,0)" xlink:href="#aO"/><use transform="matrix(0.04222222222222221,0,0,0.04222222222222221,77.85777777777776,0)" xlink:href="#bw"/><use transform="matrix(0.04222222222222221,0,0,0.04222222222222221,104.66888888888886,0)" xlink:href="#aT"/><use transform="matrix(0.04222222222222221,0,0,0.04222222222222221,131.26888888888885,0)" xlink:href="#bC"/><use transform="matrix(0.04222222222222221,0,0,0.04222222222222221,172.05555555555551,0)" xlink:href="#bk"/><use transform="matrix(0.04222222222222221,0,0,0.04222222222222221,183.96222222222218,0)" xlink:href="#bl"/></g><g id="aq"><use transform="matrix(0.04222222222222221,0,0,0.04222222222222221,0,0)" xlink:href="#aI"/><use transform="matrix(0.04222222222222221,0,0,0.04222222222222221,24.27777777777777,0)" xlink:href="#aN"/><use transform="matrix(0.04222222222222221,0,0,0.04222222222222221,48.72444444444443,0)" xlink:href="#bk"/><use transform="matrix(0.04222222222222221,0,0,0.04222222222222221,60.631111111111096,0)" xlink:href="#aN"/><use transform="matrix(0.04222222222222221,0,0,0.04222222222222221,85.07777777777775,0)" xlink:href="#by"/><use transform="matrix(0.04222222222222221,0,0,0.04222222222222221,107.49777777777777,0)" xlink:href="#aJ"/></g><g id="ar"><use transform="matrix(0.04222222222222221,0,0,0.04222222222222221,0,0)" xlink:href="#aK"/><use transform="matrix(0.04222222222222221,0,0,0.04222222222222221,24.024444444444438,0)" xlink:href="#aO"/><use transform="matrix(0.04222222222222221,0,0,0.04222222222222221,50.75111111111109,0)" xlink:href="#bw"/></g><g id="as"><use transform="matrix(0.04222222222222221,0,0,0.04222222222222221,0,0)" xlink:href="#bx"/><use transform="matrix(0.04222222222222221,0,0,0.04222222222222221,28.626666666666658,0)" xlink:href="#aK"/><use transform="matrix(0.04222222222222221,0,0,0.04222222222222221,52.65111111111109,0)" xlink:href="#aL"/></g><g id="at"><use transform="matrix(0.04222222222222221,0,0,0.04222222222222221,0,0)" xlink:href="#aX"/><use transform="matrix(0.04222222222222221,0,0,0.04222222222222221,21.57555555555555,0)" xlink:href="#aW"/><use transform="matrix(0.04222222222222221,0,0,0.04222222222222221,45.59999999999999,0)" xlink:href="#aZ"/></g><g id="au"><use transform="matrix(0.04222222222222221,0,0,0.04222222222222221,0,0)" xlink:href="#aZ"/><use transform="matrix(0.04222222222222221,0,0,0.04222222222222221,15.959999999999992,0)" xlink:href="#aY"/><use transform="matrix(0.04222222222222221,0,0,0.04222222222222221,40.19555555555554,0)" xlink:href="#bf"/><use transform="matrix(0.04222222222222221,0,0,0.04222222222222221,56.45111111111108,0)" xlink:href="#aW"/><use transform="matrix(0.04222222222222221,0,0,0.04222222222222221,80.47555555555553,0)" xlink:href="#bd"/><use transform="matrix(0.04222222222222221,0,0,0.04222222222222221,92.3822222222222,0)" xlink:href="#aV"/><use transform="matrix(0.04222222222222221,0,0,0.04222222222222221,104.28888888888886,0)" xlink:href="#aY"/><use transform="matrix(0.04222222222222221,0,0,0.04222222222222221,128.73555555555552,0)" xlink:href="#aZ"/></g><path fill="#333" d="M259-99h83V0H48v-99h83v-513H48v-96h294v96h-83v513" id="bQ"/><path fill="#333" d="M321-708c238 0 378 113 376 353C695-123 558 0 326 0H80v-708h241zm241 353c0-168-80-245-246-246H210v493h103c166-1 249-79 249-247" id="bR"/><g id="av"><use transform="matrix(0.04222222222222221,0,0,0.04222222222222221,0,0)" xlink:href="#bQ"/><use transform="matrix(0.04222222222222221,0,0,0.04222222222222221,16.46666666666666,0)" xlink:href="#bR"/></g><g id="aw"><use transform="matrix(0.04222222222222221,0,0,0.04222222222222221,0,0)" xlink:href="#bd"/><use transform="matrix(0.04222222222222221,0,0,0.04222222222222221,11.906666666666663,0)" xlink:href="#be"/><use transform="matrix(0.04222222222222221,0,0,0.04222222222222221,38.633333333333326,0)" xlink:href="#bn"/><use transform="matrix(0.04222222222222221,0,0,0.04222222222222221,65.48666666666665,0)" xlink:href="#bo"/><use transform="matrix(0.04222222222222221,0,0,0.04222222222222221,92.25555555555553,0)" xlink:href="#bf"/></g><g id="ax"><use transform="matrix(0.04222222222222221,0,0,0.04222222222222221,0,0)" xlink:href="#by"/><use transform="matrix(0.04222222222222221,0,0,0.04222222222222221,21.57555555555555,0)" xlink:href="#aK"/><use transform="matrix(0.04222222222222221,0,0,0.04222222222222221,45.59999999999999,0)" xlink:href="#aL"/></g><g id="ay"><use transform="matrix(0.04222222222222221,0,0,0.04222222222222221,0,0)" xlink:href="#aJ"/><use transform="matrix(0.04222222222222221,0,0,0.04222222222222221,16.25555555555555,0)" xlink:href="#bl"/><use transform="matrix(0.04222222222222221,0,0,0.04222222222222221,37.57777777777777,0)" xlink:href="#aR"/><use transform="matrix(0.04222222222222221,0,0,0.04222222222222221,64.4311111111111,0)" xlink:href="#aN"/></g><path fill="#3a414a" d="M249 131C150-1 57-141 57-354s93-352 192-485l79 51c-76 124-137 246-137 434S252-44 328 80" id="bS"/><path fill="#333" d="M788 0H659L500-540h-3L341 0H211L7-708h135l139 534h3l150-534h133l151 534h3l142-534h129" id="bT"/><path fill="#333" d="M440-792L212 88H103l228-880h109" id="bU"/><path fill="#333" d="M479-153H191L134 0H-3l272-708h135L675 0H533zM226-253h219L336-574" id="bV"/><path fill="#3a414a" d="M136-839c99 133 192 271 192 485 0 212-93 353-192 485L57 80c76-124 137-246 137-434S133-664 57-788" id="bW"/><g id="az"><use transform="matrix(0.04222222222222221,0,0,0.04222222222222221,0,0)" xlink:href="#bS"/><use transform="matrix(0.037777777777777764,0,0,0.037777777777777764,16.25555555555555,0)" xlink:href="#bc"/><use transform="matrix(0.037777777777777764,0,0,0.037777777777777764,36.768888888888874,0)" xlink:href="#bT"/><use transform="matrix(0.037777777777777764,0,0,0.037777777777777764,74.54666666666664,0)" xlink:href="#bR"/><use transform="matrix(0.037777777777777764,0,0,0.037777777777777764,102.08666666666663,0)" xlink:href="#bU"/><use transform="matrix(0.037777777777777764,0,0,0.037777777777777764,122.67555555555552,0)" xlink:href="#bJ"/><use transform="matrix(0.037777777777777764,0,0,0.037777777777777764,146.77777777777774,0)" xlink:href="#bT"/><use transform="matrix(0.037777777777777764,0,0,0.037777777777777764,184.55555555555551,0)" xlink:href="#bR"/><use transform="matrix(0.037777777777777764,0,0,0.037777777777777764,212.0955555555555,0)" xlink:href="#bU"/><use transform="matrix(0.037777777777777764,0,0,0.037777777777777764,230.41777777777773,0)" xlink:href="#bV"/><use transform="matrix(0.037777777777777764,0,0,0.037777777777777764,255.0866666666666,0)" xlink:href="#bT"/><use transform="matrix(0.037777777777777764,0,0,0.037777777777777764,292.86444444444436,0)" xlink:href="#bR"/><use transform="matrix(0.04222222222222221,0,0,0.04222222222222221,320.8199999999999,0)" xlink:href="#bW"/></g><g id="aA"><use transform="matrix(0.04222222222222221,0,0,0.04222222222222221,0,0)" xlink:href="#aV"/><use transform="matrix(0.04222222222222221,0,0,0.04222222222222221,11.906666666666663,0)" xlink:href="#bd"/><use transform="matrix(0.04222222222222221,0,0,0.04222222222222221,23.813333333333325,0)" xlink:href="#aX"/><use transform="matrix(0.04222222222222221,0,0,0.04222222222222221,44.88222222222221,0)" xlink:href="#aY"/><use transform="matrix(0.04222222222222221,0,0,0.04222222222222221,69.32888888888887,0)" xlink:href="#be"/><use transform="matrix(0.04222222222222221,0,0,0.04222222222222221,96.05555555555553,0)" xlink:href="#aX"/><use transform="matrix(0.04222222222222221,0,0,0.04222222222222221,117.12444444444444,0)" xlink:href="#aY"/></g><g id="aB"><use transform="matrix(0.04222222222222221,0,0,0.04222222222222221,0,0)" xlink:href="#bf"/><use transform="matrix(0.04222222222222221,0,0,0.04222222222222221,16.25555555555555,0)" xlink:href="#bM"/><use transform="matrix(0.04222222222222221,0,0,0.04222222222222221,37.57777777777777,0)" xlink:href="#bn"/><use transform="matrix(0.04222222222222221,0,0,0.04222222222222221,64.4311111111111,0)" xlink:href="#aY"/></g><path fill="#333" d="M249 131C150-1 57-141 57-354s93-352 192-485l79 51c-76 124-137 246-137 434S252-44 328 80" id="bX"/><path fill="#333" d="M211-109h306V0H80v-708h131v599" id="bY"/><path fill="#333" d="M136-839c99 133 192 271 192 485 0 212-93 353-192 485L57 80c76-124 137-246 137-434S133-664 57-788" id="bZ"/><g id="aC"><use transform="matrix(0.04222222222222221,0,0,0.04222222222222221,0,0)" xlink:href="#bX"/><use transform="matrix(0.04222222222222221,0,0,0.04222222222222221,16.25555555555555,0)" xlink:href="#bc"/><use transform="matrix(0.04222222222222221,0,0,0.04222222222222221,37.02888888888887,0)" xlink:href="#bo"/><use transform="matrix(0.04222222222222221,0,0,0.04222222222222221,63.797777777777746,0)" xlink:href="#aV"/><use transform="matrix(0.04222222222222221,0,0,0.04222222222222221,75.70444444444442,0)" xlink:href="#aV"/><use transform="matrix(0.04222222222222221,0,0,0.04222222222222221,87.61111111111109,0)" xlink:href="#bU"/><use transform="matrix(0.04222222222222221,0,0,0.04222222222222221,110.62222222222219,0)" xlink:href="#bY"/><use transform="matrix(0.04222222222222221,0,0,0.04222222222222221,130.93111111111108,0)" xlink:href="#bU"/><use transform="matrix(0.04222222222222221,0,0,0.04222222222222221,153.9422222222222,0)" xlink:href="#aU"/><use transform="matrix(0.04222222222222221,0,0,0.04222222222222221,180.45777777777775,0)" xlink:href="#bZ"/></g><g id="aD"><use transform="matrix(0.04222222222222221,0,0,0.04222222222222221,0,0)" xlink:href="#aX"/><use transform="matrix(0.04222222222222221,0,0,0.04222222222222221,21.57555555555555,0)" xlink:href="#aW"/><use transform="matrix(0.04222222222222221,0,0,0.04222222222222221,45.59999999999999,0)" xlink:href="#aZ"/></g><g id="aE"><use transform="matrix(0.04222222222222221,0,0,0.04222222222222221,0,0)" xlink:href="#aZ"/><use transform="matrix(0.04222222222222221,0,0,0.04222222222222221,15.959999999999992,0)" xlink:href="#aY"/><use transform="matrix(0.04222222222222221,0,0,0.04222222222222221,40.19555555555554,0)" xlink:href="#bf"/><use transform="matrix(0.04222222222222221,0,0,0.04222222222222221,56.45111111111108,0)" xlink:href="#aW"/><use transform="matrix(0.04222222222222221,0,0,0.04222222222222221,80.47555555555553,0)" xlink:href="#bd"/><use transform="matrix(0.04222222222222221,0,0,0.04222222222222221,92.3822222222222,0)" xlink:href="#aV"/><use transform="matrix(0.04222222222222221,0,0,0.04222222222222221,104.28888888888886,0)" xlink:href="#aY"/><use transform="matrix(0.04222222222222221,0,0,0.04222222222222221,128.73555555555552,0)" xlink:href="#aZ"/></g><g id="aF"><use transform="matrix(0.04222222222222221,0,0,0.04222222222222221,0,0)" xlink:href="#bQ"/><use transform="matrix(0.04222222222222221,0,0,0.04222222222222221,16.46666666666666,0)" xlink:href="#bR"/></g><g id="aG"><use transform="matrix(0.04222222222222221,0,0,0.04222222222222221,0,0)" xlink:href="#aW"/><use transform="matrix(0.04222222222222221,0,0,0.04222222222222221,24.024444444444438,0)" xlink:href="#be"/><use transform="matrix(0.04222222222222221,0,0,0.04222222222222221,50.75111111111109,0)" xlink:href="#bb"/></g><g id="aH"><use transform="matrix(0.04222222222222221,0,0,0.04222222222222221,0,0)" xlink:href="#aX"/><use transform="matrix(0.04222222222222221,0,0,0.04222222222222221,21.57555555555555,0)" xlink:href="#aW"/><use transform="matrix(0.04222222222222221,0,0,0.04222222222222221,45.59999999999999,0)" xlink:href="#aZ"/></g></defs></g></svg>